<?xml version="1.0" encoding="iso-8859-1"?>
<!-- Uploaded to: SVG Repo, www.svgrepo.com, Generator: SVG Repo Mixer Tools -->
<svg fill="#000000" height="800px" width="800px" version="1.1" id="Layer_1" xmlns="http://www.w3.org/2000/svg" xmlns:xlink="http://www.w3.org/1999/xlink" 
	 viewBox="0 0 330 330" xml:space="preserve">
<g id="XMLID_479_">
	<path id="XMLID_481_" d="M102.703,0C69.497,0,42.482,27.018,42.482,60.228c0,52.722,49.89,85.939,52.014,87.328
		c2.493,1.629,5.35,2.444,8.207,2.444c2.857,0,5.714-0.815,8.207-2.444c0.701-0.458,7.085-4.696,15.211-12.267
		c16.79-15.641,36.803-41.36,36.803-75.061C162.923,27.018,135.908,0,102.703,0z M105.671,113.338
		c-1.026,0.956-2.017,1.844-2.956,2.659c-11.301-9.835-30.234-30.14-30.234-55.77C72.482,43.56,86.039,30,102.703,30
		c16.664,0,30.221,13.56,30.221,30.228C132.923,83.14,118.104,101.756,105.671,113.338z"/>
	<circle id="XMLID_484_" cx="102.703" cy="60.074" r="7.536"/>
	<path id="XMLID_486_" d="M227.297,90.013c-33.206,0-60.221,27.018-60.221,60.228c0,52.722,49.89,85.939,52.014,87.328
		c2.493,1.629,5.35,2.444,8.207,2.444c2.857,0,5.714-0.815,8.207-2.444c0.701-0.459,7.085-4.696,15.211-12.267
		c16.789-15.641,36.803-41.359,36.803-75.061C287.518,117.031,260.503,90.013,227.297,90.013z M230.266,203.351
		c-1.026,0.956-2.017,1.844-2.955,2.659c-11.301-9.835-30.234-30.14-30.234-55.77c0-16.668,13.557-30.228,30.221-30.228
		c16.663,0,30.221,13.56,30.221,30.228C257.518,173.153,242.698,191.769,230.266,203.351z"/>
	<circle id="XMLID_489_" cx="227.297" cy="150.086" r="7.536"/>
	<path id="XMLID_490_" d="M102.703,180c-33.205,0-60.221,27.018-60.221,60.228c0,52.722,49.89,85.94,52.014,87.328
		c2.493,1.629,5.35,2.444,8.207,2.444c2.857,0,5.714-0.815,8.207-2.444c0.701-0.458,7.085-4.696,15.211-12.267
		c16.79-15.641,36.803-41.36,36.803-75.061C162.923,207.018,135.908,180,102.703,180z M105.671,293.338
		c-1.026,0.956-2.017,1.844-2.956,2.659c-11.301-9.835-30.234-30.14-30.234-55.77c0-16.668,13.557-30.228,30.221-30.228
		c16.664,0,30.221,13.56,30.221,30.228C132.923,263.14,118.104,281.756,105.671,293.338z"/>
	<circle id="XMLID_494_" cx="102.703" cy="240.074" r="7.536"/>
</g>
</svg>