<!DOCTYPE svg PUBLIC "-//W3C//DTD SVG 1.1//EN" "http://www.w3.org/Graphics/SVG/1.1/DTD/svg11.dtd">
<!-- Uploaded to: SVG Repo, www.svgrepo.com, Transformed by: SVG Repo Mixer Tools -->
<svg fill="#b62b2b" version="1.1" id="Layer_1" xmlns="http://www.w3.org/2000/svg" xmlns:xlink="http://www.w3.org/1999/xlink" width="800px" height="800px" viewBox="0 0 256 160" enable-background="new 0 0 256 160" xml:space="preserve" stroke="#b62b2b">
<g id="SVGRepo_bgCarrier" stroke-width="0"/>
<g id="SVGRepo_tracerCarrier" stroke-linecap="round" stroke-linejoin="round"/>
<g id="SVGRepo_iconCarrier"> <path d="M64.54,111.46c-12.78,0-23.11,10.34-23.11,23.11c0,12.78,10.33,23.12,23.11,23.12c12.77,0,23.11-10.34,23.11-23.12 C87.65,121.8,77.31,111.46,64.54,111.46z M64.54,143.43c-4.85,0-8.85-4-8.85-8.86c0-4.85,4-8.85,8.85-8.85s8.85,4,8.85,8.85 C73.39,139.43,69.39,143.43,64.54,143.43z M210.04,110.48c-12.77,0-23.11,10.33-23.11,23.11c0,12.77,10.34,23.11,23.11,23.11 c12.78,0,23.12-10.34,23.12-23.11C233.16,120.81,222.82,110.48,210.04,110.48z M210.04,142.44c-4.85,0-8.85-4-8.85-8.85 c0-4.85,4-8.85,8.85-8.85c4.86,0,8.86,4,8.86,8.85C218.9,138.44,214.9,142.44,210.04,142.44z M2,2v119.44c0,4.48,3.52,8.56,8,8.56 h22c0.92,0,1.83-1.16,2-2c2.52-14.46,15.33-24.44,30.54-24.44s27.82,10.02,30.34,24.48c0.17,0.93,1.2,1.96,2.12,1.96h33V2H2z M64.77,89.29c-17.29,0-31.36-14.07-31.36-31.36c0-16.07,12.14-29.35,27.73-31.15v-3.97H56.8v-7.52h16.48v7.52h-4.63v3.99 c3.49,0.44,6.8,1.44,9.84,2.92l2.64-4.18l6.35,4l-2.68,4.27c6.92,5.75,11.34,14.43,11.34,24.12C96.14,75.22,82.07,89.29,64.77,89.29 z M64.77,34.07c-13.15,0-23.85,10.7-23.85,23.86c0,13.15,10.7,23.85,23.85,23.85c13.16,0,23.86-10.7,23.86-23.85 C88.63,44.77,77.93,34.07,64.77,34.07z M64.9,57.78V38.42c10.67,0.05,19.25,8.7,19.36,19.36H64.9z M252,113h-5V91 c0-7.4-5.52-13-13-13h-24c-0.5,0-1.1-0.27-1.44-0.6l-37.4-36.41c-1.68-1.68-3.72-2.91-6.16-2.99h-27v92h40c0.92,0,1.83-1.16,2-2 c2.52-14.46,14.83-25.43,30.04-25.43c15.22,0,27.82,11.01,30.34,25.47c0.17,0.93,1.7,1.96,2.62,1.96h2c4.79,0,9-4.31,9-9.02v-6.22 C254,113.84,253.01,113,252,113z M191,78h-41c-1.01,0-2-0.99-2-2l-0.04-25.85c0-1.01,1.03-2.15,2.04-2.15h13 c0.5,0,1.52,0.55,1.94,0.89L192,75C193.01,76.26,192.6,78,191,78z"/> </g>
</svg>