<?xml version="1.0" encoding="iso-8859-1"?>
<!-- Uploaded to: SVG Repo, www.svgrepo.com, Generator: SVG Repo Mixer Tools -->
<svg height="800px" width="800px" version="1.1" id="Layer_1" xmlns="http://www.w3.org/2000/svg" xmlns:xlink="http://www.w3.org/1999/xlink" 
	 viewBox="0 0 512.001 512.001" xml:space="preserve">
<circle style="fill:#E45D4C;" cx="255.997" cy="365.655" r="138.307"/>
<path style="opacity:0.2;enable-background:new    ;" d="M270.085,489.883c-76.387,0-138.31-61.923-138.31-138.31
	c0-24.449,6.351-47.412,17.483-67.342c28.262,47.714,62.116,94.086,81.298,119.389c7.658,10.1,22.832,10.1,30.49,0
	c21.545-28.42,61.595-83.414,91.446-137.04c-24.92-24.273-58.955-39.232-96.491-39.232c-76.387,0-138.311,61.924-138.311,138.31
	S179.613,503.969,256,503.969c41.778,0,79.229-18.524,104.59-47.805C336.333,477.172,304.693,489.883,270.085,489.883z"/>
<path style="fill:#F5DF5D;" d="M400.587,152.618c0-79.852-64.733-144.586-144.586-144.586S111.414,72.766,111.414,152.618
	c0,63.763,92.19,191.795,129.341,240.802c7.658,10.1,22.832,10.1,30.49,0C308.397,344.413,400.587,216.381,400.587,152.618z"/>
<path style="fill:#4A5058;" d="M142.934,244.643c9.548,18.036,20.504,36.461,31.759,54.196h162.614
	c11.255-17.734,22.211-36.16,31.759-54.196L142.934,244.643L142.934,244.643z"/>
<path style="opacity:0.15;enable-background:new    ;" d="M254.145,380.03c-37.151-49.007-129.341-177.039-129.341-240.802
	c0-36.519,13.545-69.87,35.877-95.32c-30.198,26.5-49.267,65.375-49.267,108.709c0,63.763,92.19,191.795,129.341,240.802
	c7.658,10.1,22.832,10.1,30.49,0c1.721-2.27,3.562-4.713,5.505-7.308C269.055,389.308,259.657,387.301,254.145,380.03z"/>
<circle style="opacity:0.15;enable-background:new    ;" cx="250.985" cy="157.638" r="57.637"/>
<circle style="fill:#FFFFFF;" cx="255.997" cy="152.615" r="57.637"/>
<path style="opacity:0.1;enable-background:new    ;" d="M261.817,204.44c-31.832,0-57.637-25.804-57.637-57.637
	c0-14.436,5.32-27.621,14.089-37.733c-12.186,10.568-19.904,26.152-19.904,43.548c0,31.832,25.804,57.637,57.637,57.637
	c17.396,0,32.98-7.719,43.548-19.904C289.436,199.12,276.251,204.44,261.817,204.44z"/>
<path d="M321.669,152.618c0-36.21-29.46-65.669-65.669-65.669s-65.668,29.46-65.668,65.669S219.79,218.286,256,218.286
	S321.669,188.829,321.669,152.618z M206.396,152.618c0-27.352,22.252-49.605,49.604-49.605s49.605,22.253,49.605,49.605
	S283.352,202.222,256,202.222C228.648,202.223,206.396,179.971,206.396,152.618z M408.619,152.618C408.619,68.465,340.155,0,256,0
	S103.382,68.465,103.382,152.618c0,26.501,14.601,65.36,43.412,115.631c-23.989,26.85-37.136,61.2-37.136,97.409
	c0,80.694,65.649,146.343,146.343,146.343s146.343-65.649,146.343-146.343c0-36.209-13.147-70.559-37.136-97.409
	C394.019,217.978,408.619,179.12,408.619,152.618z M119.447,152.618c0-75.295,61.258-136.553,136.553-136.553
	s136.553,61.258,136.553,136.553c0,62.62-97.751,196.43-127.71,235.949c-2.117,2.793-5.341,4.395-8.844,4.395
	s-6.726-1.602-8.844-4.395C217.197,349.048,119.447,215.238,119.447,152.618z M386.279,365.658
	c0,71.836-58.442,130.279-130.279,130.279s-130.277-58.442-130.277-130.279c0-30.484,10.47-59.489,29.668-82.765
	c28.303,47.093,61.611,92.491,78.963,115.38c5.181,6.835,13.071,10.756,21.646,10.756c8.574,0,16.464-3.92,21.646-10.756
	c17.352-22.888,50.662-68.287,78.964-115.38C375.809,306.169,386.279,335.173,386.279,365.658z"/>
</svg>