<?xml version="1.0" encoding="UTF-8"?>
<svg version="1.1" xmlns="http://www.w3.org/2000/svg" width="1024" height="1024">
<path d="M0 0 C337.92 0 675.84 0 1024 0 C1024 337.92 1024 675.84 1024 1024 C686.08 1024 348.16 1024 0 1024 C0 686.08 0 348.16 0 0 Z " fill="#040403" transform="translate(0,0)"/>
<path d="M0 0 C26.4 0 52.8 0 80 0 C83.3 9.24 86.6 18.48 90 28 C91.94106734 33.25545052 93.88227886 38.50892578 95.85211182 43.75332642 C100.05122678 54.94085235 104.16483935 66.14728791 108.02807617 77.45605469 C109.91353227 82.95101236 111.87514556 88.41254751 113.89453125 93.859375 C114.14595886 94.53864548 114.39738647 95.21791595 114.65643311 95.91777039 C115.89980211 99.27392677 117.14958991 102.62749814 118.40869141 105.9777832 C118.86034668 107.19296631 119.31200195 108.40814941 119.77734375 109.66015625 C120.18202881 110.73918213 120.58671387 111.81820801 121.00366211 112.92993164 C121.9852363 115.95450784 122.5637929 118.85453093 123 122 C123.66 122 124.32 122 125 122 C125.12568359 121.12029541 125.25136719 120.24059082 125.38085938 119.33422852 C125.95769361 116.22783061 126.76831224 113.59087272 127.90625 110.65234375 C128.31125732 109.59635986 128.71626465 108.54037598 129.13354492 107.45239258 C129.80994019 105.71252075 129.80994019 105.71252075 130.5 103.9375 C131.24232053 102.00802446 131.98248963 100.07773085 132.72270203 98.14744568 C133.26315014 96.73863351 133.80427956 95.33008255 134.34602356 93.92176819 C136.56864005 88.14082495 138.76369016 82.34974449 140.94921875 76.5546875 C141.29723541 75.63194534 141.64525208 74.70920319 142.0038147 73.75849915 C143.38751716 70.08864084 144.77064949 66.41856776 146.15380859 62.74850464 C154.04756858 41.81146057 162.02868265 20.90760363 170 0 C186.79612761 -0.0940946 203.59216768 -0.16429411 220.3884964 -0.20724869 C228.19007765 -0.22773725 235.99149368 -0.25558983 243.79296875 -0.30175781 C250.60515582 -0.34205157 257.41722308 -0.36753189 264.22952604 -0.37635398 C267.82537424 -0.38149813 271.42088014 -0.39328853 275.01661682 -0.42292023 C327.37554716 -0.8372051 370.51751289 14.26159516 409 50 C409.60457031 50.55042969 410.20914062 51.10085938 410.83203125 51.66796875 C439.5860765 78.94054094 456.92222583 123.55307477 458.23828125 162.5546875 C458.64288701 185.48599241 455.64115726 207.34277714 448 229 C447.64832764 230.00546875 447.64832764 230.00546875 447.28955078 231.03125 C439.90765971 251.7026288 428.34186601 269.53422406 414 286 C412.81146223 287.43664208 411.62372535 288.87394798 410.4375 290.3125 C409.633125 291.199375 408.82875 292.08625 408 293 C407.34 293 406.68 293 406 293 C405.67 293.99 405.34 294.98 405 296 C404.34 296 403.68 296 403 296 C403 296.66 403 297.32 403 298 C400.93278407 299.79259309 398.8604575 301.46892054 396.6875 303.125 C396.04159912 303.6207251 395.39569824 304.1164502 394.73022461 304.62719727 C393.42025791 305.6297377 392.10817502 306.62951933 390.79394531 307.62646484 C389.32064424 308.75449857 387.87154911 309.91407952 386.4296875 311.08203125 C353.52840819 336.87098781 311.38922666 343.22572071 270.87304688 343.11352539 C269.44213361 343.11324225 268.01122019 343.11340372 266.58030701 343.1139679 C262.75285095 343.11425092 258.92542723 343.10843541 255.09797859 343.10139394 C251.0768361 343.09507686 247.05569259 343.09455007 243.0345459 343.09336853 C235.44542993 343.09027956 227.85632862 343.08209951 220.26721907 343.07201904 C211.61647052 343.06078163 202.96572121 343.05532836 194.31496716 343.05032361 C176.54330317 343.03991444 158.77165277 343.02236291 141 343 C141.46226629 341.58707885 141.92684653 340.17491467 142.3923645 338.76306152 C142.65082216 337.97657982 142.90927982 337.19009811 143.17556953 336.37978363 C144.47076641 332.64109559 146.04300065 329.03413809 147.6171875 325.40625 C151.96044661 315.23779047 155.95705613 304.94702575 159.92303467 294.62670898 C161.99860818 289.22745647 164.08469183 283.8322734 166.171875 278.4375 C166.58605682 277.36689331 167.00023865 276.29628662 167.42697144 275.1932373 C171.01358481 265.93676114 174.67210671 256.71049226 178.375 247.5 C178.65728455 246.79751129 178.93956909 246.09502258 179.23040771 245.37124634 C179.7949135 243.96645881 180.35943764 242.56167867 180.92398071 241.15690613 C181.1991452 240.47219742 181.47430969 239.78748871 181.7578125 239.08203125 C182.02951263 238.40614456 182.30121277 237.73025787 182.58114624 237.03388977 C185.50119487 229.76375109 188.38020188 222.47759643 191.25 215.1875 C191.51016907 214.52692596 191.77033813 213.86635193 192.03839111 213.1857605 C195.44883695 204.52367783 198.83868687 195.85366755 202.21875 187.1796875 C203.72853581 183.30704536 205.23896775 179.43465597 206.75 175.5625 C207.12537903 174.60054718 207.50075806 173.63859436 207.88751221 172.64749146 C216.07249405 151.68957577 224.50222246 130.83273613 233 110 C240.25492085 109.89746106 247.5096507 109.82806349 254.76513672 109.78027344 C257.22647077 109.76032276 259.68775845 109.73315236 262.14892578 109.69824219 C286.11140182 109.36718807 307.79854673 111.50689432 326 129 C338.43473463 142.10196429 344.59096511 157.03561586 344.34716797 175.12792969 C343.71565897 192.53415781 335.63207827 208.24120045 323 220 C304.23658597 236.88707263 280.78591807 236.55747129 257 237 C252.71 248.55 248.42 260.1 244 272 C251.397996 271.92550629 258.79489092 271.84223032 266.19238281 271.73754883 C268.70208777 271.70456027 271.21186227 271.67644983 273.72167969 271.65356445 C306.92015983 271.34274203 333.77938323 264.90402404 358.6875 241.75 C376.40006585 222.98259152 386.46588169 197.48525685 386.3125 171.75 C386.30686035 170.74638428 386.3012207 169.74276855 386.29541016 168.70874023 C386.06487568 154.4943494 382.43998378 142.02806373 377 129 C376.62101562 128.08476562 376.24203125 127.16953125 375.8515625 126.2265625 C372.40782115 118.67963997 367.19690354 112.39868749 362 106 C361.18789063 104.97261719 360.37578125 103.94523437 359.5390625 102.88671875 C355.32482904 98.09545948 350.19363618 94.66119291 345 91 C343.68128906 90.06607422 343.68128906 90.06607422 342.3359375 89.11328125 C326.4806089 78.45524314 307.63448743 71.85275618 288.48242188 71.88647461 C287.77899658 71.88632858 287.07557129 71.88618256 286.35083008 71.8860321 C284.05677052 71.88672131 281.76279513 71.89446655 279.46875 71.90234375 C277.86592656 71.90421146 276.26310254 71.9056337 274.66027832 71.90663147 C270.46490878 71.91042883 266.26957448 71.92023504 262.07421875 71.93133545 C257.78385901 71.94160969 253.49349352 71.94614191 249.203125 71.95117188 C240.80206726 71.96186009 232.40103803 71.97890268 224 72 C223.52280518 73.22066162 223.04561035 74.44132324 222.55395508 75.69897461 C220.30732719 81.44535463 218.06005136 87.19148111 215.8125 92.9375 C215.40261841 93.9854071 214.99273682 95.03331421 214.57043457 96.11297607 C209.48071582 109.12376548 204.37943093 122.12981811 199.25 135.125 C194.82336822 146.34225852 190.4309124 157.57244124 186.0625 168.8125 C185.77427368 169.55391235 185.48604736 170.29532471 185.18908691 171.0592041 C182.17525256 178.81262111 179.16611542 186.56783346 176.1658783 194.32652283 C174.91316348 197.56506607 173.65857261 200.80288097 172.40377808 204.0406189 C171.81309016 205.56631503 171.22330923 207.09236271 170.634552 208.61880493 C167.8598628 215.81242498 165.04580597 222.96782803 161.96875 230.0390625 C159.3326655 236.1232934 156.96858825 242.28417329 154.66992188 248.50048828 C152.75868766 253.66903322 150.79446299 258.81705667 148.828125 263.96484375 C148.46005737 264.92874023 148.09198975 265.89263672 147.71276855 266.88574219 C134.68967745 300.9657495 134.68967745 300.9657495 129 315.375 C128.41460449 316.87728149 128.41460449 316.87728149 127.81738281 318.40991211 C127.46514648 319.29300049 127.11291016 320.17608887 126.75 321.0859375 C126.45609375 321.8289209 126.1621875 322.5719043 125.859375 323.33740234 C125 325 125 325 123 326 C120.13948228 320.02582141 117.57359883 313.99516937 115.27734375 307.78125 C113.03830643 301.75625224 110.76258461 295.74685712 108.44921875 289.75 C108.14260315 288.95460815 107.83598755 288.15921631 107.52008057 287.33972168 C106.26710756 284.09082719 105.01295001 280.84239149 103.75805664 277.59423828 C99.22256885 265.85041538 94.76567491 254.07905627 90.35424805 242.28808594 C86.69570616 232.50993158 83.01027469 222.74190229 79.32543945 212.97363281 C78.48488506 210.74493688 77.64471447 208.51609615 76.80493164 206.28710938 C71.76926573 192.9213069 66.69132902 179.57305752 61.55389404 166.24603271 C58.22175905 157.59513604 54.94157267 148.92587622 51.6968689 140.24185181 C50.7571294 137.72681071 49.81583489 135.21235539 48.87426758 132.69799805 C47.55136747 129.16492024 46.22901067 125.63164001 44.90722656 122.09814453 C42.2928156 115.10921149 39.67612946 108.12113315 37.05731201 101.1338501 C36.47735041 99.58605138 35.89763856 98.03815906 35.31817627 96.49017334 C31.27270727 85.68329707 27.20258983 74.88591168 23.11503601 64.09489441 C21.03404577 58.60110843 18.95597449 53.10621929 16.87828541 47.61118412 C15.09785173 42.90327476 13.31341133 38.19690856 11.52614403 33.49158955 C10.39978078 30.52336734 9.2771878 27.55372921 8.1555481 24.58371925 C7.62861144 23.19078888 7.10011637 21.7984469 6.56994629 20.406744 C5.83436437 18.47518812 5.10443927 16.54158008 4.37573242 14.60742188 C3.96352951 13.52005737 3.5513266 12.43269287 3.12663269 11.31237793 C1.86686904 7.60858578 0.9488408 3.7953632 0 0 Z " fill="#542BF5" transform="translate(282,213)"/>
<path d="M0 0 C72.64835165 0 72.64835165 0 89 15 C101.72804916 28.47533993 107.6795611 45.50626223 107.47265625 63.86352539 C106.81611731 81.50265707 100.47742142 95.47841072 88 108 C87.44699219 108.57621094 86.89398437 109.15242187 86.32421875 109.74609375 C64.88128963 130.23127417 23.15488675 123 0 123 C0 82.41 0 41.82 0 0 Z " fill="#FBFBFB" transform="translate(549,606)"/>
<path d="M0 0 C9.01708096 6.56958756 14.00198194 16.02318607 16.8671875 26.66796875 C19.16448643 42.91315406 17.07619494 59.14532028 7.5703125 72.78515625 C1.71679601 80.05954708 -6.41062168 85.06297253 -15.75 86.375 C-24.31653415 86.97220981 -33.38974765 87.48237511 -40.75 82.375 C-42.73 80.065 -44.71 77.755 -46.75 75.375 C-46.75 88.905 -46.75 102.435 -46.75 116.375 C-54.67 116.375 -62.59 116.375 -70.75 116.375 C-70.75 76.775 -70.75 37.175 -70.75 -3.625 C-63.82 -3.625 -56.89 -3.625 -49.75 -3.625 C-49.42 0.005 -49.09 3.635 -48.75 7.375 C-47.76 6.1375 -46.77 4.9 -45.75 3.625 C-34.45748337 -9.31672799 -13.9037928 -8.44075111 0 0 Z " fill="#FCFCFC" transform="translate(899.75,644.625)"/>
<path d="M0 0 C9.0021685 8.74056702 13.97603015 20.79227976 14.3125 33.3125 C14.17175165 45.99548992 10.68287323 58.75273825 1.96484375 68.20703125 C-9.7068001 79.30229762 -22.71700278 81.64879034 -38.26171875 81.30859375 C-50.94102364 80.69879282 -61.12894183 75.3630675 -69.8125 66.25 C-78.83164896 55.21005115 -81.30501424 40.9147143 -80 27 C-77.65908321 15.54812868 -72.51750196 4.20862649 -63 -3 C-43.39795831 -14.85430734 -18.22822412 -14.7873269 0 0 Z " fill="#FCFCFC" transform="translate(436,650)"/>
<path d="M0 0 C9.19094022 6.48661007 14.92922122 15.97135796 17 27 C18.40797571 41.8290661 17.31418292 55.80013464 8 68 C0.22450948 76.82623248 -10.12758156 83.33223849 -22.07543945 84.14038086 C-36.67235802 84.74438089 -49.34261434 83.74348652 -61 74 C-70.06143308 65.5951925 -75.48017872 54.70700639 -76.21875 42.3359375 C-76.47537461 34.18151985 -75.90767824 26.6990263 -73 19 C-72.74476563 18.30777344 -72.48953125 17.61554687 -72.2265625 16.90234375 C-68.41785747 8.11436839 -60.7910902 -0.1207102 -52 -4 C-35.08433246 -10.63918039 -15.37066013 -10.41525426 0 0 Z " fill="#FCFCFC" transform="translate(800,647)"/>
<path d="M0 0 C9.57 0 19.14 0 29 0 C30.99160156 6.29964844 30.99160156 6.29964844 33.0234375 12.7265625 C33.88907221 15.46101743 34.75484558 18.19542703 35.62109375 20.9296875 C36.9822546 25.22615331 38.34302516 29.52273846 39.70068359 33.8203125 C41.01407927 37.97736352 42.33046493 42.13346047 43.6484375 46.2890625 C43.86630669 46.97671944 44.08417587 47.66437637 44.30864716 48.3728714 C46.7752556 56.14992099 49.28697548 63.90894342 51.89550781 71.63964844 C52.12964449 72.33475965 52.36378117 73.02987087 52.60501289 73.74604607 C53.72262013 77.06021115 54.84759956 80.37158398 55.98471069 83.67910767 C56.38114777 84.84767303 56.77758484 86.0162384 57.18603516 87.22021484 C57.71301498 88.75541275 57.71301498 88.75541275 58.25064087 90.32162476 C59 93 59 93 59 97 C59.66 97 60.32 97 61 97 C61.12189697 96.14462646 61.24379395 95.28925293 61.36938477 94.40795898 C62.01016036 90.94509155 62.95701252 87.80584471 64.08984375 84.47265625 C64.30610916 83.83083908 64.52237457 83.18902191 64.74519348 82.52775574 C65.22070447 81.11743705 65.69817973 79.70777949 66.17736816 78.29870605 C67.51792512 74.35496704 68.84245424 70.40584654 70.16796875 66.45703125 C70.46095856 65.58509125 70.75394836 64.71315125 71.05581665 63.81478882 C75.35879264 50.98351915 79.54682747 38.11421751 83.75 25.25 C84.56891307 22.74486783 85.38784179 20.23974077 86.20678711 17.73461914 C88.13903761 11.82346368 90.06946802 5.91171793 92 0 C100.91 0 109.82 0 119 0 C118.21235798 4.72585211 117.30134336 8.27635512 115.6484375 12.68359375 C115.27822983 13.67914528 115.27822983 13.67914528 114.90054321 14.69480896 C114.35428239 16.16236461 113.80561623 17.62902659 113.25488281 19.09490967 C111.68720571 23.26867596 110.1380622 27.4493372 108.5859375 31.62890625 C108.06383698 33.03263489 108.06383698 33.03263489 107.53118896 34.46472168 C104.37784821 42.95348519 101.26671465 51.45746317 98.1640625 59.96484375 C97.91109783 60.65841162 97.65813316 61.35197948 97.3975029 62.06656456 C95.34382527 67.69794163 93.29162756 73.32985775 91.23967743 78.96186447 C89.5355972 83.6389352 87.83089752 88.31577927 86.125 92.9921875 C85.89573444 93.62070429 85.66646889 94.24922108 85.43025589 94.89678383 C82.00464168 104.28433785 78.53362994 113.65259378 75 123 C65.1 123 55.2 123 45 123 C43.8140625 119.74511719 42.628125 116.49023438 41.40625 113.13671875 C33.47465984 91.38202719 25.52581387 69.63449107 17.4375 47.9375 C17.10991699 47.05865143 16.78233398 46.17980286 16.44482422 45.27432251 C14.87667957 41.0681378 13.30756757 36.86231493 11.73779297 32.65673828 C9.15305995 25.7315199 6.57390839 18.80424838 4 11.875 C3.58419678 10.75988037 3.16839355 9.64476074 2.73999023 8.49584961 C2.37204346 7.50464111 2.00409668 6.51343262 1.625 5.4921875 C1.14933594 4.21384033 1.14933594 4.21384033 0.6640625 2.90966797 C0 1 0 1 0 0 Z " fill="#FCFCFC" transform="translate(107,606)"/>
<path d="M0 0 C8.76407347 6.76949123 14.37137622 17.08822071 16 28 C16 32.95 16 37.9 16 43 C-5.12 43 -26.24 43 -48 43 C-44.8344525 55.67396575 -44.8344525 55.67396575 -36.3046875 63.62109375 C-32.48701261 65.21404793 -29.62637149 65.43330653 -25.5 65.4375 C-23.59734375 65.46650391 -23.59734375 65.46650391 -21.65625 65.49609375 C-17.35792237 64.91288049 -15.33335776 63.73878412 -12 61 C-11.45859375 60.09894531 -10.9171875 59.19789063 -10.359375 58.26953125 C-6.94788278 54.98794685 -4.06622139 55.48832101 0.52734375 55.56054688 C1.59082031 55.60244141 2.65429688 55.64433594 3.75 55.6875 C4.82894531 55.71005859 5.90789062 55.73261719 7.01953125 55.75585938 C9.6810935 55.8147435 12.33984228 55.89692999 15 56 C13.97842307 64.26764585 9.45078674 70.52250391 2.9765625 75.65625 C-9.05744506 83.83747253 -21.77079528 85.29238917 -36 84 C-46.98897438 81.85104501 -57.02849309 75.81434913 -64 67 C-71.90500829 54.18843485 -73.0424899 38.94356807 -70.3125 24.31640625 C-66.95483146 13.55787663 -60.94980321 2.79704947 -50.83984375 -2.7265625 C-34.01322432 -10.73201165 -15.72966003 -10.42439008 0 0 Z " fill="#FCFCFC" transform="translate(290,647)"/>
<path d="M0 0 C3.99855422 3.62458872 6.24573632 7.9218683 8 13 C8.04554653 14.6660442 8.05410253 16.33421169 8 18 C4.27189132 18.23292281 0.54565008 18.37459124 -3.1875 18.5 C-4.77014648 18.60054687 -4.77014648 18.60054687 -6.38476562 18.703125 C-9.44745109 18.78041675 -12.02873214 18.76031677 -15 18 C-16.83841801 16.08723223 -17.83779298 14.27533294 -18.9909668 11.89550781 C-19.91915119 9.75920517 -19.91915119 9.75920517 -22.4765625 8.515625 C-29.49814295 7.08087482 -36.28064062 7.61089444 -43 10 C-43.16802051 11.45817797 -43.33437143 12.9165484 -43.5 14.375 C-43.63921875 15.59316406 -43.63921875 15.59316406 -43.78125 16.8359375 C-44.03352351 18.96912825 -44.03352351 18.96912825 -44 21 C-37.66938354 23.01348529 -31.32213197 24.65086892 -24.83862305 26.09204102 C0.75843359 31.83061992 0.75843359 31.83061992 7 41 C10.02517428 48.15216923 10.32893321 56.43217839 8.16015625 63.88671875 C4.18846461 72.61909127 -1.73637811 77.43056145 -10.5625 80.9375 C-17.22325519 83.14795438 -23.83352575 83.46017144 -30.8125 83.5 C-31.76648682 83.50636475 -32.72047363 83.51272949 -33.70336914 83.51928711 C-44.3413549 83.32838437 -54.21419216 80.62604194 -61.98046875 73.07421875 C-68.00951465 66.47334582 -69 63.32130483 -69 54 C-61.74 54 -54.48 54 -47 54 C-45.68 56.64 -44.36 59.28 -43 62 C-36.46280671 66.75432239 -29.90527429 66.85323507 -22 66 C-18.48636262 64.80893648 -16.83258108 64.04977614 -14.5625 61.1875 C-13.76890719 58.10130573 -14.09346539 56.04336621 -15 53 C-18.2060358 49.91509179 -21.55561404 49.14309608 -25.8203125 48.1328125 C-27.17449972 47.8008651 -28.52866569 47.46883099 -29.8828125 47.13671875 C-31.99459961 46.63096281 -34.10726593 46.1291856 -36.22070312 45.63037109 C-58.01954774 40.44724976 -58.01954774 40.44724976 -64.0625 32.875 C-64.61035156 32.21242188 -65.15820312 31.54984375 -65.72265625 30.8671875 C-69.42548245 25.45449354 -68.58081154 18.24205505 -68 12 C-65.94416926 5.07655207 -62.08615799 -0.1325012 -56 -4 C-38.97244514 -13.09891677 -15.4699964 -11.46961758 0 0 Z " fill="#FCFCFC" transform="translate(527,648)"/>
<path d="M0 0 C32.66157205 0 32.66157205 0 44 9 C53.68953004 18.70812798 56.26565144 30.33185999 56.32128906 43.66943359 C56.13971937 54.41885011 52.86401438 63.61014623 45.6875 71.5625 C31.95908658 84.01385171 19.34672185 82 0 82 C0 54.94 0 27.88 0 0 Z " fill="#050504" transform="translate(574,626)"/>
<path d="M0 0 C7.92 0 15.84 0 24 0 C24 40.59 24 81.18 24 123 C16.08 123 8.16 123 0 123 C0 82.41 0 41.82 0 0 Z " fill="#FAFAFA" transform="translate(320,606)"/>
<path d="M0 0 C0 6.6 0 13.2 0 20 C-3.2484375 20.37125 -3.2484375 20.37125 -6.5625 20.75 C-14.67597227 21.94291737 -19.21695654 23.46359463 -24.375 30.0625 C-27.2565388 34.07662223 -28.12192112 37.19334589 -28.20532227 42.11401367 C-28.22526749 43.15486618 -28.24521271 44.19571869 -28.26576233 45.26811218 C-28.29083107 46.95104118 -28.29083107 46.95104118 -28.31640625 48.66796875 C-28.33718735 49.81791824 -28.35796844 50.96786774 -28.37937927 52.15266418 C-28.44483342 55.83088125 -28.50374074 59.50917048 -28.5625 63.1875 C-28.60568913 65.67904396 -28.64930355 68.17058059 -28.69335938 70.66210938 C-28.8013119 76.77466665 -28.90041666 82.88727767 -29 89 C-36.59 89 -44.18 89 -52 89 C-52 59.96 -52 30.92 -52 1 C-44.74 1 -37.48 1 -30 1 C-29.67 4.96 -29.34 8.92 -29 13 C-28.05125 11.783125 -27.1025 10.56625 -26.125 9.3125 C-18.55815227 0.77515477 -11.09576425 -0.64510257 0 0 Z " fill="#FDFDFD" transform="translate(721,640)"/>
<path d="M0 0 C6.82688163 4.03664163 10.04428585 10.26827968 12.25 17.6875 C13.41684674 27.722382 12.70316758 38.25853011 6.9375 46.875 C2.99659025 51.54570786 -1.72097066 53.75878788 -7.69921875 54.75 C-14.29539205 55.11837268 -20.20873959 53.15356288 -25.23046875 48.83203125 C-31.73829969 41.81000132 -33.76534644 32.93068835 -33.5859375 23.51171875 C-32.98779147 14.90156404 -30.25252461 7.99927338 -23.9375 2 C-16.83545192 -2.61633125 -7.82503717 -3.57035916 0 0 Z " fill="#060605" transform="translate(413.4375,658.625)"/>
<path d="M0 0 C6.23344063 3.66214637 9.82958687 9.63662528 11.625 16.5 C12.68623382 26.12910153 12.81655398 37.03645822 7.625 45.5 C2.45687173 51.66587971 -2.80849977 54.08486362 -10.8125 54.8125 C-17.92065393 54.18897773 -23.38827019 51.71339935 -28.375 46.5 C-33.82068516 36.93090468 -34.88343472 26.15746799 -32.76171875 15.38671875 C-30.65305012 8.67056273 -27.3219856 4.29854015 -21.375 0.5 C-14.84689571 -2.66805061 -6.69774088 -2.91654998 0 0 Z " fill="#050504" transform="translate(781.375,658.5)"/>
<path d="M0 0 C5.82981148 3.37329817 9.29056175 8.16555424 11.18359375 14.55859375 C13.00828557 24.75706509 13.05770376 36.79146307 7.17578125 45.65234375 C3.12117355 50.69099107 -0.89034897 53.74326414 -7.47265625 54.68359375 C-13.14522283 55.00468242 -17.80755774 53.92204928 -22.3125 50.375 C-28.79454983 42.9299849 -30.66577474 35.10111272 -30.625 25.4375 C-30.64111328 24.67759766 -30.65722656 23.91769531 -30.67382812 23.13476562 C-30.68065685 15.13832826 -28.4470965 8.73272859 -22.96875 2.8515625 C-16.64119992 -2.78950809 -7.56084197 -3.40951176 0 0 Z " fill="#050504" transform="translate(881.3125,658.625)"/>
<path d="M0 0 C5.62819259 3.33097113 7.89519601 7.74404883 10.0625 13.8125 C10.0625 15.4625 10.0625 17.1125 10.0625 18.8125 C-2.8075 18.8125 -15.6775 18.8125 -28.9375 18.8125 C-26.23666435 5.30832173 -26.23666435 5.30832173 -21.28515625 1.5625 C-14.81976919 -2.24533533 -7.02101203 -2.6215796 0 0 Z " fill="#060605" transform="translate(271.9375,656.1875)"/>
<path d="M0 0 C26.73 0 53.46 0 81 0 C84.53674121 9.4313099 84.53674121 9.4313099 85.75 13.3125 C86.14445312 14.54419922 86.14445312 14.54419922 86.546875 15.80078125 C87 18 87 18 86 21 C84.99394407 18.39802798 83.99497475 15.79370638 83 13.1875 C82.71382813 12.44951172 82.42765625 11.71152344 82.1328125 10.95117188 C81.72675781 9.88286133 81.72675781 9.88286133 81.3125 8.79296875 C81.06113281 8.1383667 80.80976563 7.48376465 80.55078125 6.80932617 C80 5 80 5 80 2 C53.6 2 27.2 2 0 2 C0 1.34 0 0.68 0 0 Z " fill="#110643" transform="translate(282,211)"/>
<path d="M0 0 C1.22596039 3.67788118 0.84310077 4.78449613 0 9 C18.15 9 36.3 9 55 9 C55 8.34 55 7.68 55 7 C55.6290625 6.96261719 56.258125 6.92523438 56.90625 6.88671875 C62.11081704 6.48697038 66.36637152 5.6448729 71.171875 3.6328125 C73.80587096 2.72104467 76.24731696 2.79354877 79 3 C75.96923892 5.02050738 73.52475344 5.92565226 70.0625 7 C69.02222656 7.33 67.98195313 7.66 66.91015625 8 C57.34813532 10.62114984 47.88891 11.28637152 38.015625 11.1953125 C36.83401794 11.1924826 35.65241089 11.18965271 34.43499756 11.18673706 C30.70655659 11.17565209 26.97836685 11.1505698 23.25 11.125 C20.7031285 11.11495509 18.15625319 11.1058319 15.609375 11.09765625 C9.40616606 11.07575117 3.20310099 11.04239218 -3 11 C-2.28159908 7.20088882 -1.27444595 3.65341173 0 0 Z " fill="#050018" transform="translate(529,474)"/>
<path d="M0 0 C0.74451416 -0.00108765 1.48902832 -0.00217529 2.25610352 -0.0032959 C4.40911769 -0.00293987 6.5618737 0.0062418 8.71484375 0.01953125 C10.58644165 0.03077026 10.58644165 0.03077026 12.49584961 0.04223633 C17.45186577 0.24408653 22.28025086 0.84847024 27.0625 2.1875 C26.0625 3.1875 26.0625 3.1875 23.47459412 3.30775452 C22.32209671 3.30553391 21.1695993 3.30331329 19.98217773 3.30102539 C18.03026772 3.30091209 18.03026772 3.30091209 16.03892517 3.30079651 C14.60798098 3.29568909 13.17703718 3.29047308 11.74609375 3.28515625 C10.2902074 3.28329203 8.83432043 3.28186815 7.37843323 3.28086853 C3.53970621 3.27704365 -0.29898319 3.26721364 -4.13769531 3.25616455 C-8.05207816 3.24594978 -11.96646706 3.24137077 -15.88085938 3.23632812 C-23.56642343 3.22559134 -31.25195645 3.20851529 -38.9375 3.1875 C-39.5975 5.4975 -40.2575 7.8075 -40.9375 10.1875 C-41.80436777 7.76027025 -42.07101589 6.56526519 -41.19921875 4.09863281 C-39.9375 2.1875 -39.9375 2.1875 -36.125 1.359375 C-34.3979895 1.19436745 -32.66832027 1.05604933 -30.9375 0.9375 C-29.52488892 0.82474731 -29.52488892 0.82474731 -28.08374023 0.7097168 C-18.73178721 0.06268913 -9.37021272 0.00752184 0 0 Z " fill="#5A37E9" transform="translate(544.9375,279.8125)"/>
<path d="M0 0 C26.4 0 52.8 0 80 0 C80.99 3.3 81.98 6.6 83 10 C80 7 80 7 78 2 C53.25 2 28.5 2 3 2 C3.66 3.32 4.32 4.64 5 6 C5.38133299 7.9914056 5.71325582 9.99279077 6 12 C6.32635698 13.66804677 6.65725594 15.33524314 7 17 C8.32 16.34 9.64 15.68 11 15 C11 19.62 11 24.24 11 29 C8.58747296 26.58747296 7.98446525 24.61505985 6.8359375 21.40625 C6.43632812 20.29378906 6.03671875 19.18132812 5.625 18.03515625 C5.2125 16.86855469 4.8 15.70195312 4.375 14.5 C3.95476562 13.33339844 3.53453125 12.16679687 3.1015625 10.96484375 C0 2.27442675 0 2.27442675 0 0 Z " fill="#6549DD" transform="translate(282,213)"/>
<path d="M0 0 C1.14849559 3.96753021 0.87071371 6.93666935 0 11 C-0.98560611 12.34400833 -1.98758315 13.67607028 -3 15 C-3.83877772 17.2093578 -4.54051185 19.44277759 -5.2421875 21.69921875 C-6 24 -6 24 -7.625 27.625 C-9.15762238 30.98186729 -9.15762238 30.98186729 -9.5 34.75 C-10 38 -10 38 -11.37109375 39.28515625 C-16.67916378 44.87326835 -18.36258372 55.55719873 -20 63 C-20.66 63 -21.32 63 -22 63 C-22.33 64.32 -22.66 65.64 -23 67 C-24.07251118 63.78548983 -23.9675336 62.13568058 -22.64648438 59.03417969 C-22.32611206 58.26205139 -22.00573975 57.4899231 -21.67565918 56.69439697 C-21.31862915 55.86196472 -20.96159912 55.02953247 -20.59375 54.171875 C-19.84397802 52.36361362 -19.09667313 50.55432774 -18.3515625 48.74414062 C-17.96194336 47.80127197 -17.57232422 46.85840332 -17.17089844 45.88696289 C-15.25912593 41.17330361 -13.4859306 36.4100091 -11.71875 31.640625 C-11.19643799 30.23435852 -11.19643799 30.23435852 -10.66357422 28.79968262 C-9.60697246 25.95055279 -8.55340782 23.10031204 -7.5 20.25 C-6.76585932 18.26944438 -6.0314853 16.28897523 -5.296875 14.30859375 C-3.52857415 9.5400493 -1.76337994 4.77036625 0 0 Z " fill="#5B3DD5" transform="translate(431,268)"/>
<path d="M0 0 C2.39268011 2.39268011 3.01060807 4.32861436 4.171875 7.50390625 C4.58646973 8.62990234 5.00106445 9.75589844 5.42822266 10.91601562 C5.86440918 12.11935547 6.3005957 13.32269531 6.75 14.5625 C7.19520996 15.78001953 7.64041992 16.99753906 8.09912109 18.25195312 C9.40555303 21.83243906 10.70350544 25.41590597 12 29 C12.34772461 29.95374512 12.69544922 30.90749023 13.05371094 31.89013672 C13.91678945 34.25798947 14.77297876 36.62814988 15.625 39 C15.87217773 39.68006104 16.11935547 40.36012207 16.37402344 41.06079102 C17.36644118 43.86134724 18 46.00113003 18 49 C17.34 49 16.68 49 16 49 C14.14670366 46.22005549 13.31436395 44.21743449 12.375 41.0625 C12.11460937 40.20785156 11.85421875 39.35320312 11.5859375 38.47265625 C11 36 11 36 11 32 C9.02 32.495 9.02 32.495 7 33 C6.01 29.7 5.02 26.4 4 23 C4.66 23 5.32 23 6 23 C4.38634066 16.87725 2.68810988 10.83759886 0.55078125 4.875 C0 3 0 3 0 0 Z " fill="#532FE3" transform="translate(373,247)"/>
<path d="M0 0 C10.57053465 -0.06960079 21.14101452 -0.12286248 31.71173191 -0.15543652 C36.62048517 -0.17107275 41.5290813 -0.19227373 46.43774414 -0.22631836 C51.17748999 -0.25898462 55.91708498 -0.27686838 60.65693474 -0.28463173 C62.46258861 -0.2901622 64.26823451 -0.30096187 66.07382393 -0.31719017 C68.60872171 -0.33906119 71.14300112 -0.34196291 73.67797852 -0.34057617 C74.79036896 -0.35675491 74.79036896 -0.35675491 75.92523193 -0.3732605 C81.09340452 -0.34279449 84.4488389 0.77799698 89 3 C91.34913321 3.79962931 93.70854046 4.53082902 96.08203125 5.25390625 C98 6 98 6 100 8 C94.05971917 6.92569389 88.34628513 5.59659694 82.6171875 3.68359375 C76.66183584 2.12809145 70.61098335 1.87020578 64.48242188 1.79467773 C63.77899658 1.78477814 63.07557129 1.77487854 62.35083008 1.76467896 C60.05683603 1.73343054 57.76282138 1.70845382 55.46875 1.68359375 C53.86592105 1.66299243 52.26309715 1.64199519 50.66027832 1.62062073 C46.46496699 1.5657279 42.26960932 1.51617564 38.07421875 1.46777344 C33.78381279 1.41731722 29.49347316 1.36175774 25.203125 1.30664062 C16.80213961 1.19946082 8.4010983 1.09792862 0 1 C0 0.67 0 0.34 0 0 Z " fill="#492CB7" transform="translate(506,283)"/>
<path d="M0 0 C0.33 0.99 0.66 1.98 1 3 C2.30710242 6.32561141 3.62142428 9.64822879 4.94140625 12.96875 C6 16 6 16 6 19 C6.66 19.33 7.32 19.66 8 20 C8.74609375 21.8203125 8.74609375 21.8203125 9.4375 24.125 C10.34483136 27.01569387 11.30250527 29.70584564 12.5 32.5 C15.08039047 38.52091109 17.16364027 44.4763941 18 51 C18.66 51 19.32 51 20 51 C20.33 52.32 20.66 53.64 21 55 C21.66 55 22.32 55 23 55 C23.06058594 55.58007812 23.12117188 56.16015625 23.18359375 56.7578125 C23.66016561 61.20092863 24.21008666 65.59905423 25 70 C22.89888897 67.89888897 22.3671331 66.70251211 21.36328125 63.9609375 C21.04020996 63.08920898 20.71713867 62.21748047 20.38427734 61.31933594 C20.03059082 60.34770508 19.6769043 59.37607422 19.3125 58.375 C18.52051516 56.22099215 17.72746116 54.06737724 16.93359375 51.9140625 C16.48226074 50.68848633 16.03092773 49.46291016 15.56591797 48.20019531 C14.097771 44.24168746 12.58908661 40.29923478 11.07542419 36.35794067 C9.68342531 32.73231191 8.29997352 29.10344463 6.9168396 25.47442627 C6.22242932 23.65853292 5.52436897 21.84403117 4.82266235 20.03094482 C3.82733797 17.45667685 2.84589786 14.87749685 1.8671875 12.296875 C1.5624501 11.51863373 1.25771271 10.74039246 0.94374084 9.93856812 C-0.47131129 6.16780633 -1.24180964 3.84702375 0 0 Z " fill="#5D3FDB" transform="translate(326,326)"/>
<path d="M0 0 C1.28589593 3.85768778 0.43749924 5.04706974 -1.08984375 8.76171875 C-1.54423828 9.87998047 -1.99863281 10.99824219 -2.46679688 12.15039062 C-2.95212891 13.31763672 -3.43746094 14.48488281 -3.9375 15.6875 C-4.65969727 17.45577148 -4.65969727 17.45577148 -5.39648438 19.25976562 C-6.58925776 22.17674608 -7.79072299 25.0898314 -9 28 C-10.35015859 23.94952424 -9.62084998 21.2079832 -9 17 C-9.99 16.67 -10.98 16.34 -12 16 C-12.39213671 11.55578397 -11.25321274 8.81312925 -9 5 C-8.34 4.67 -7.68 4.34 -7 4 C-6.01 4.99 -5.02 5.98 -4 7 C-3.67 6.01 -3.34 5.02 -3 4 C-2.34 4 -1.68 4 -1 4 C-0.67 2.68 -0.34 1.36 0 0 Z " fill="#5634E4" transform="translate(430,474)"/>
<path d="M0 0 C0.33 0 0.66 0 1 0 C1 2.97 1 5.94 1 9 C0.01 9.33 -0.98 9.66 -2 10 C-3.08405278 12.71200267 -3.08405278 12.71200267 -4 16 C-4.96647119 18.42290827 -5.94484939 20.83798954 -6.9375 23.25 C-9.30855439 29.07962278 -11.36767201 34.9145667 -13 41 C-13.66 41 -14.32 41 -15 41 C-15.12375 41.72445312 -15.2475 42.44890625 -15.375 43.1953125 C-15.98989643 45.95466024 -16.87561151 48.28725296 -18 50.875 C-19.68337038 54.93809901 -20.46393851 58.62216453 -21 63 C-21.66 63.99 -22.32 64.98 -23 66 C-23.66 66 -24.32 66 -25 66 C-24.27299077 61.32447941 -22.64205234 57.13978113 -20.9375 52.75390625 C-20.6299025 51.9537207 -20.32230499 51.15353516 -20.00538635 50.32910156 C-19.00788791 47.73855283 -18.00422518 45.15044776 -17 42.5625 C-16.3162353 40.79227092 -15.63256033 39.02200718 -14.94897461 37.25170898 C-10.11950477 24.77038546 -5.17041762 12.34454722 0 0 Z " fill="#5A40CA" transform="translate(460,462)"/>
<path d="M0 0 C7.62552692 11.43829037 5.1841299 32.94459565 2.81787109 45.78173828 C1.10512778 53.93505841 -1.34297023 61.49109872 -5 69 C-5.33 69 -5.66 69 -6 69 C-6.15384615 61 -6.15384615 61 -5 58 C-4.01 57.505 -4.01 57.505 -3 57 C1.64677713 47.9968693 1.29044523 37.49696211 1.20581055 27.64086914 C1.18750578 25.43819591 1.18530194 23.23594476 1.18554688 21.03320312 C1.16730359 13.96288232 0.98621804 7.0139827 0 0 Z " fill="#080233" transform="translate(665,358)"/>
<path d="M0 0 C0.99 0.33 1.98 0.66 3 1 C3 2.98 3 4.96 3 7 C3.66 7.33 4.32 7.66 5 8 C5.74609375 9.93359375 5.74609375 9.93359375 6.4375 12.4375 C6.69015625 13.33082031 6.9428125 14.22414063 7.203125 15.14453125 C7.46609375 16.08683594 7.7290625 17.02914063 8 18 C8.55853913 19.8761837 9.12083255 21.75125529 9.6875 23.625 C10.125 25.08333333 10.5625 26.54166667 11 28 C11.66 28 12.32 28 13 28 C13.62591479 30.02055018 14.25068609 32.0414546 14.875 34.0625 C15.24109375 35.24457031 15.6071875 36.42664063 15.984375 37.64453125 C16.74957477 40.17263357 17.4607707 42.69485987 18.125 45.25 C18.41375 46.1575 18.7025 47.065 19 48 C19.66 48.33 20.32 48.66 21 49 C21.6443525 51.82799151 22.02326331 54.66118149 22.4375 57.53125 C22.623125 58.3459375 22.80875 59.160625 23 60 C23.66 60.33 24.32 60.66 25 61 C25 62.65 25 64.3 25 66 C22.40008398 62.87513697 21.04996184 59.88486943 19.6875 56.06640625 C19.25671143 54.87313721 18.82592285 53.67986816 18.38208008 52.45043945 C17.92132808 51.15448048 17.46063613 49.85850016 17 48.5625 C16.02817192 45.85813259 15.05142194 43.15555413 14.07421875 40.453125 C13.82443771 39.76060135 13.57465668 39.0680777 13.31730652 38.35456848 C11.53921224 33.44059664 9.70407744 28.55077515 7.83203125 23.671875 C7.57710907 23.00667343 7.32218689 22.34147186 7.05953979 21.65611267 C6.06813069 19.07235188 5.0752868 16.48920639 4.07348633 13.90945435 C3.38469627 12.13524771 2.70196848 10.35869114 2.01953125 8.58203125 C1.62870361 7.57374268 1.23787598 6.5654541 0.83520508 5.52661133 C0 3 0 3 0 0 Z " fill="#5C3ED3" transform="translate(296,250)"/>
<path d="M0 0 C4.32165325 1.49161539 7.82929399 3.77238236 11.5 6.4375 C12.10875977 6.87707031 12.71751953 7.31664062 13.34472656 7.76953125 C25.29958901 16.51789571 36.86754714 26.2789834 46 38 C45.505 38.99 45.505 38.99 45 40 C44.01 39.67 43.02 39.34 42 39 C41.67 37.35 41.34 35.7 41 34 C40.34 34 39.68 34 39 34 C39 33.34 39 32.68 39 32 C38.34 32 37.68 32 37 32 C37 31.34 37 30.68 37 30 C36.34 30 35.68 30 35 30 C35 29.34 35 28.68 35 28 C34.34 28 33.68 28 33 28 C33 27.34 33 26.68 33 26 C31.35 25.67 29.7 25.34 28 25 C27.95875 24.443125 27.9175 23.88625 27.875 23.3125 C26.53375322 19.76777636 23.99075278 18.21315705 21 16 C20.01 15.67 19.02 15.34 18 15 C17 14 16 13 15 12 C14.01 11.67 13.02 11.34 12 11 C11.34 10.319375 10.68 9.63875 10 8.9375 C8.10497717 6.65210239 8.10497717 6.65210239 5 7 C4.67 6.01 4.34 5.02 4 4 C1.99983534 2.79117904 1.99983534 2.79117904 0 2 C0 1.34 0 0.68 0 0 Z " fill="#5D40D6" transform="translate(656,237)"/>
<path d="M0 0 C0 0.66 0 1.32 0 2 C-5.03409445 4.51704722 -9.24810406 5.42790256 -14.86328125 5.7890625 C-17.05080358 5.87657712 -17.05080358 5.87657712 -19 7 C-21.17674783 7.15469367 -23.3578348 7.25002106 -25.5390625 7.31640625 C-26.84101562 7.35830078 -28.14296875 7.40019531 -29.484375 7.44335938 C-30.86458045 7.48317299 -32.24478883 7.52288522 -33.625 7.5625 C-35.01303415 7.60569407 -36.40105528 7.64930865 -37.7890625 7.69335938 C-41.19260256 7.79972 -44.59621778 7.90174714 -48 8 C-48 8.66 -48 9.32 -48 10 C-48.66 10 -49.32 10 -50 10 C-49.34 8.35 -48.68 6.7 -48 5 C-47.21052979 4.9906543 -46.42105957 4.98130859 -45.60766602 4.97167969 C-30.33485429 4.74487226 -14.69139098 0 0 0 Z " fill="#08022A" transform="translate(587,444)"/>
<path d="M0 0 C0.91449108 3.25360041 0.9136635 5.00001852 -0.0625 8.25 C-0.9450665 11.71763224 -1.00168915 13.79440725 0.125 17.1875 C1 21 1 21 -0.875 24.5 C-1.926875 25.7375 -1.926875 25.7375 -3 27 C-5 24 -5 24 -6 22 C-6.26554687 22.71027344 -6.53109375 23.42054688 -6.8046875 24.15234375 C-7.15789062 25.07144531 -7.51109375 25.99054688 -7.875 26.9375 C-8.22304688 27.85402344 -8.57109375 28.77054687 -8.9296875 29.71484375 C-10 32 -10 32 -12 33 C-9.88804509 25.43137471 -7.22216627 18.17004844 -4.3125 10.875 C-3.68891602 9.2971875 -3.68891602 9.2971875 -3.05273438 7.6875 C-2.03880049 5.12352925 -1.02117166 2.56109468 0 0 Z " fill="#070414" transform="translate(463,392)"/>
<path d="M0 0 C0.66 0 1.32 0 2 0 C1.3227011 4.1143381 0.03379361 7.74251954 -1.50390625 11.61328125 C-1.7466478 12.22769577 -1.98938934 12.84211029 -2.23948669 13.47514343 C-3.0098905 15.42251559 -3.78609451 17.36751397 -4.5625 19.3125 C-5.08827647 20.63851895 -5.61367113 21.96468936 -6.13867188 23.29101562 C-7.4213679 26.52910808 -8.70927349 29.76509885 -10 33 C-11.03159626 29.90521121 -10.97482862 28.47368607 -10.5625 25.3125 C-10.46066406 24.50425781 -10.35882813 23.69601562 -10.25390625 22.86328125 C-10.17011719 22.24839844 -10.08632813 21.63351562 -10 21 C-10.66 20.67 -11.32 20.34 -12 20 C-10.8125 17.5625 -10.8125 17.5625 -9 15 C-6.3125 14.1875 -6.3125 14.1875 -4 14 C-4.020625 12.9275 -4.04125 11.855 -4.0625 10.75 C-4.0142016 7.85209576 -3.86844115 5.71387859 -3 3 C-2.01 3 -1.02 3 0 3 C0 2.01 0 1.02 0 0 Z " fill="#06040D" transform="translate(453,474)"/>
<path d="M0 0 C0.66 0 1.32 0 2 0 C-0.45660053 7.63096841 -3.28854073 15.08971911 -6.1875 22.5625 C-6.88262695 24.36170898 -6.88262695 24.36170898 -7.59179688 26.19726562 C-8.72602525 29.1322277 -9.86213485 32.0664464 -11 35 C-12.31538327 30.84228506 -11.34433068 28.1120703 -10 24 C-9.34 24 -8.68 24 -8 24 C-8 22.02 -8 20.04 -8 18 C-7.67 18 -7.34 18 -7 18 C-6.67 16.02 -6.34 14.04 -6 12 C-6.99 12.33 -7.98 12.66 -9 13 C-8.45276317 9.62537285 -7.9451 7.91765 -6 5 C-4.68 5 -3.36 5 -2 5 C-1.34 3.35 -0.68 1.7 0 0 Z " fill="#5A3BE2" transform="translate(443,439)"/>
<path d="M0 0 C0.33 0 0.66 0 1 0 C1 2.64 1 5.28 1 8 C0.01 8.495 0.01 8.495 -1 9 C-1.87767996 11.20772624 -1.87767996 11.20772624 -2.5625 13.8125 C-2.81128906 14.68519531 -3.06007813 15.55789063 -3.31640625 16.45703125 C-3.73427745 18.01151213 -4.12327465 19.57458523 -4.4609375 21.1484375 C-5 23 -5 23 -7.0625 25.8125 C-9.31414045 28.87695706 -9.31414045 28.87695706 -8.9375 32.5 C-9.0241436 37.3520415 -10.58390433 38.66523994 -14 42 C-14.66 42 -15.32 42 -16 42 C-13.20867406 33.14232672 -9.73743569 24.56391273 -6.3125 15.9375 C-5.69964922 14.38875914 -5.08701716 12.83993171 -4.47460938 11.29101562 C-2.98559395 7.52634046 -1.49361915 3.7628509 0 0 Z " fill="#5A3BD7" transform="translate(478,416)"/>
<path d="M0 0 C5.77885322 3.96264221 10.87680683 8.27906947 15 14 C15 14.66 15 15.32 15 16 C12.125 16.125 12.125 16.125 9 16 C8.34 15.34 7.68 14.68 7 14 C5.34738161 12.97695052 3.68208635 11.97383946 2 11 C2.33 9.35 2.66 7.7 3 6 C2.01 5.67 1.02 5.34 0 5 C0 3.35 0 1.7 0 0 Z " fill="#522BF1" transform="translate(600,336)"/>
<path d="M0 0 C6.89449182 6.89449182 8.58759699 22.80947665 10.4375 32.125 C10.6132959 32.97618408 10.7890918 33.82736816 10.97021484 34.7043457 C12.03528811 40.42981593 11.88629155 45.24200127 11 51 C10.67 51 10.34 51 10 51 C9.93941406 50.22914063 9.87882813 49.45828125 9.81640625 48.6640625 C9.73261719 47.66117187 9.64882813 46.65828125 9.5625 45.625 C9.48128906 44.62726563 9.40007813 43.62953125 9.31640625 42.6015625 C9.15034374 40.02072387 9.15034374 40.02072387 8 38 C7.72379947 35.27745194 7.55400429 32.55500309 7.37890625 29.82421875 C6.98651492 26.89948748 6.12111449 24.71797868 5 22 C4.19432264 18.60004152 3.48712018 15.18756085 2.78125 11.765625 C2.5234375 10.85296875 2.265625 9.9403125 2 9 C1.34 8.67 0.68 8.34 0 8 C0 5.36 0 2.72 0 0 Z " fill="#5B3CD2" transform="translate(727,320)"/>
<path d="M0 0 C0.33 0.66 0.66 1.32 1 2 C0.0625 4.625 0.0625 4.625 -1 7 C-1.66 7 -2.32 7 -3 7 C-4.23921302 9.97411124 -5.30058404 12.85262818 -6 16 C-4.68 16.33 -3.36 16.66 -2 17 C-2.33 18.32 -2.66 19.64 -3 21 C-4.98 21.33 -6.96 21.66 -9 22 C-8.67 20.35 -8.34 18.7 -8 17 C-8.66 17 -9.32 17 -10 17 C-10 17.99 -10 18.98 -10 20 C-11.82193842 21.9249647 -13.89235283 23.37535531 -16 25 C-16.66 24.67 -17.32 24.34 -18 24 C-17.28714844 23.18917969 -16.57429687 22.37835938 -15.83984375 21.54296875 C-9.88094728 14.68237661 -4.6130626 7.85637624 0 0 Z " fill="#080322" transform="translate(714,474)"/>
<path d="M0 0 C0.625 1.75 0.625 1.75 1 4 C0.35191436 5.34246312 -0.31822584 6.67432801 -1 8 C-1.73408917 12.03749041 -2.12428645 15.89854699 -2 20 C-3.32 20.33 -4.64 20.66 -6 21 C-6.12375 21.969375 -6.2475 22.93875 -6.375 23.9375 C-6.58125 24.948125 -6.7875 25.95875 -7 27 C-7.66 27.33 -8.32 27.66 -9 28 C-10.13350534 30.01669827 -10.13350534 30.01669827 -11 32 C-12 30 -12 30 -11.11962891 27.12670898 C-10.65991699 25.92860596 -10.20020508 24.73050293 -9.7265625 23.49609375 C-9.36176285 22.53836815 -9.36176285 22.53836815 -8.98959351 21.56129456 C-8.47354049 20.21079105 -7.95379275 18.86169449 -7.43066406 17.51391602 C-6.62799669 15.44522327 -5.8364838 13.37253578 -5.046875 11.29882812 C-1.16072896 1.16072896 -1.16072896 1.16072896 0 0 Z " fill="#5738E0" transform="translate(444,236)"/>
<path d="M0 0 C2.63916166 2.63916166 3.56861061 5.66110706 4.85546875 9.08984375 C5.12136307 9.79017227 5.38725739 10.49050079 5.66120911 11.21205139 C6.22123004 12.69295119 6.77834349 14.17495328 7.33276367 15.65795898 C8.18438942 17.92920422 9.0516047 20.19407658 9.91992188 22.45898438 C10.46190002 23.89807537 11.00294727 25.33751737 11.54296875 26.77734375 C11.80434128 27.45554672 12.06571381 28.13374969 12.33500671 28.83250427 C14.11451274 33.65646178 14.11451274 33.65646178 13 37 C11.515 37.495 11.515 37.495 10 38 C10.04125 36.906875 10.0825 35.81375 10.125 34.6875 C10.32074666 30.91107771 10.32074666 30.91107771 8 28 C8.375 25.8125 8.375 25.8125 9 24 C8.34 24 7.68 24 7 24 C7 22.35 7 20.7 7 19 C6.34 19 5.68 19 5 19 C5 17.35 5 15.7 5 14 C4.01 13.67 3.02 13.34 2 13 C1.26953125 11.07421875 1.26953125 11.07421875 0.8125 8.6875 C0.65394531 7.90761719 0.49539063 7.12773437 0.33203125 6.32421875 C0 4 0 4 0 0 Z " fill="#0B0333" transform="translate(346,386)"/>
<path d="M0 0 C1.35304209 4.05912626 0.15216503 5.77149591 -1.4375 9.6875 C-1.91058594 10.86699219 -2.38367188 12.04648437 -2.87109375 13.26171875 C-3.24363281 14.16535156 -3.61617188 15.06898438 -4 16 C-4.66 16 -5.32 16 -6 16 C-6.69848264 14.06643218 -7.38344814 12.12797702 -8.0625 10.1875 C-8.44535156 9.10855469 -8.82820313 8.02960938 -9.22265625 6.91796875 C-10 4 -10 4 -9 1 C-8.34 1.99 -7.68 2.98 -7 4 C-5.68 3.34 -4.36 2.68 -3 2 C-2.67 2.33 -2.34 2.66 -2 3 C-1.34 2.01 -0.68 1.02 0 0 Z " fill="#070221" transform="translate(411,319)"/>
<path d="M0 0 C0 0.99 0 1.98 0 3 C-1.98187203 4.81199728 -3.91846852 6.40313099 -6.0625 8 C-6.62388672 8.43828125 -7.18527344 8.8765625 -7.76367188 9.328125 C-10.68883487 11.54790583 -13.46261156 13.30076255 -16.87109375 14.6875 C-20.09076458 15.63835551 -20.09076458 15.63835551 -21 18 C-23.42104768 18.80898423 -25.78208533 19.49756407 -28.25 20.125 C-28.91902344 20.30675781 -29.58804688 20.48851562 -30.27734375 20.67578125 C-33.92608714 21.62918571 -37.22814164 22.21929409 -41 22 C-37.9630501 20.34982059 -34.82410593 19.1935711 -31.56860352 18.04711914 C-19.74231216 13.84727131 -9.67470471 8.03782285 0 0 Z " fill="#5D40D1" transform="translate(633,461)"/>
<path d="M0 0 C0.96912042 3.27078142 1 5.39035432 1 9 C25.75 9.495 25.75 9.495 51 10 C51 10.33 51 10.66 51 11 C33.18 11 15.36 11 -3 11 C-2.22714361 7.13571805 -1.28980123 3.69743019 0 0 Z " fill="#090245" transform="translate(529,474)"/>
<path d="M0 0 C4.90579632 0.42049683 6.7185393 2.47843242 10 6 C13.45200412 9.29634346 16.17716916 11.33016238 21 12 C21.66 12.66 22.32 13.32 23 14 C23.66 14.33 24.32 14.66 25 15 C25 16.65 25 18.3 25 20 C19.04426831 16.11774527 13.26442006 12.03918859 7.53125 7.8359375 C4.73498073 5.80777924 1.89751256 3.87946761 -1 2 C-0.67 1.34 -0.34 0.68 0 0 Z " fill="#0C0436" transform="translate(656,234)"/>
<path d="M0 0 C0.33 0.66 0.66 1.32 1 2 C1.99 2.33 2.98 2.66 4 3 C3.67 3.66 3.34 4.32 3 5 C2.34 5 1.68 5 1 5 C1 5.66 1 6.32 1 7 C2.65 7 4.3 7 6 7 C-9.5 20 -9.5 20 -16 20 C-16 19.34 -16 18.68 -16 18 C-14.35 17.67 -12.7 17.34 -11 17 C-11 16.34 -11 15.68 -11 15 C-9.02 14.34 -7.04 13.68 -5 13 C-5 12.34 -5 11.68 -5 11 C-3.68 11 -2.36 11 -1 11 C-1 10.34 -1 9.68 -1 9 C-1.99 9 -2.98 9 -4 9 C-3.67 8.34 -3.34 7.68 -3 7 C-2.34 7.33 -1.68 7.66 -1 8 C-0.67 5.36 -0.34 2.72 0 0 Z " fill="#0A0427" transform="translate(624,457)"/>
<path d="M0 0 C2.375 0.25 2.375 0.25 5 1 C5.28875 1.598125 5.5775 2.19625 5.875 2.8125 C7.1885211 5.3665688 7.99991254 5.67202363 10.5 6.9375 C12.97531165 8.26759485 13.8739118 8.79367385 15.375 11.25 C16.18843596 14.82911821 16.62853624 18.34727303 17 22 C14.236634 18.59656704 11.61520714 15.12618027 9.0625 11.5625 C6.17622996 7.57027601 3.22169608 3.72508609 0 0 Z " fill="#5733E7" transform="translate(640,314)"/>
<path d="M0 0 C0.66 0 1.32 0 2 0 C2 0.66 2 1.32 2 2 C3.32 2.66 4.64 3.32 6 4 C6.66 3.34 7.32 2.68 8 2 C8.59732819 4.76264289 9 7.16032769 9 10 C9.94978897 12.15028304 9.94978897 12.15028304 11 14 C11.99 14 12.98 14 14 14 C14.33 15.98 14.66 17.96 15 20 C11.5299724 16.62209703 8.36300616 13.13504664 5.3125 9.375 C4.54550781 8.43398438 3.77851562 7.49296875 2.98828125 6.5234375 C1 4 1 4 -1 1 C-0.67 0.67 -0.34 0.34 0 0 Z M14 10 C15.485 10.99 15.485 10.99 17 12 C16.67 12.66 16.34 13.32 16 14 C15.34 14 14.68 14 14 14 C14 12.68 14 11.36 14 10 Z " fill="#080515" transform="translate(693,263)"/>
<path d="M0 0 C0.33 0 0.66 0 1 0 C1.09688221 5.44693314 1.12862175 10.63904667 0 16 C0.66 16.33 1.32 16.66 2 17 C-1 19 -1 19 -3 20 C-3.46954261 23.04581269 -3.46954261 23.04581269 -3.625 26.5625 C-3.69976563 27.76003906 -3.77453125 28.95757812 -3.8515625 30.19140625 C-3.90054688 31.11824219 -3.94953125 32.04507813 -4 33 C-5.32 33 -6.64 33 -8 33 C-8.33 32.34 -8.66 31.68 -9 31 C-8.14600795 28.56131144 -7.23130991 26.19943979 -6.25 23.8125 C-3.15007644 15.98111417 -1.36045973 8.30596466 0 0 Z " fill="#5A3DD8" transform="translate(668,396)"/>
<path d="M0 0 C0.66 0 1.32 0 2 0 C4.27571116 8.03501094 4.27571116 8.03501094 3.125 12.0625 C2.568125 13.0215625 2.568125 13.0215625 2 14 C1.01 14 0.02 14 -1 14 C-3.15028304 14.94978897 -3.15028304 14.94978897 -5 16 C-3.41078475 10.63904723 -1.81027062 5.29156027 0 0 Z " fill="#0A0A0A" transform="translate(188,710)"/>
<path d="M0 0 C1.28589593 3.85768778 0.43749924 5.04706974 -1.08984375 8.76171875 C-1.54423828 9.87998047 -1.99863281 10.99824219 -2.46679688 12.15039062 C-2.95212891 13.31763672 -3.43746094 14.48488281 -3.9375 15.6875 C-4.65969727 17.45577148 -4.65969727 17.45577148 -5.39648438 19.25976562 C-6.58925776 22.17674608 -7.79072299 25.0898314 -9 28 C-9.86853477 25.08146772 -9.95701333 23.70446663 -9.5 20.5625 C-9.03715326 17.26471697 -9.13563337 15.16934429 -10 12 C-9.0925 11.690625 -8.185 11.38125 -7.25 11.0625 C-2.79935222 8.23805045 -1.72418627 4.83786383 0 0 Z " fill="#5939E0" transform="translate(495,308)"/>
<path d="M0 0 C3.19270964 4.78906447 4.82666694 10.27757666 6.7956543 15.65917969 C7.55572861 17.73153767 8.32726211 19.79937746 9.09960938 21.8671875 C9.58925084 23.19765589 10.0782051 24.52837743 10.56640625 25.859375 C11.00927979 27.06045898 11.45215332 28.26154297 11.90844727 29.49902344 C13.00325026 33.01042468 13.58428586 36.35105089 14 40 C11 38 11 38 10.33203125 35.69921875 C10.16058594 34.70535156 9.98914063 33.71148437 9.8125 32.6875 C8.26289476 25.17528328 5.55711812 18.26310319 2.69262695 11.16088867 C2.34675537 10.29181885 2.00088379 9.42274902 1.64453125 8.52734375 C1.32846924 7.75124756 1.01240723 6.97515137 0.68676758 6.17553711 C0 4 0 4 0 0 Z " fill="#5E41D1" transform="translate(391,296)"/>
<path d="M0 0 C1.65 0 3.3 0 5 0 C4.01 1.485 4.01 1.485 3 3 C3.66 3.33 4.32 3.66 5 4 C4.95875 4.845625 4.9175 5.69125 4.875 6.5625 C5.01535028 10.42213269 5.82780164 13.33688013 7 17 C8.32 16.34 9.64 15.68 11 15 C11 19.62 11 24.24 11 29 C8.58747296 26.58747296 7.98446525 24.61505985 6.8359375 21.40625 C6.43632812 20.29378906 6.03671875 19.18132812 5.625 18.03515625 C5.2125 16.86855469 4.8 15.70195312 4.375 14.5 C3.95476562 13.33339844 3.53453125 12.16679687 3.1015625 10.96484375 C0 2.27442675 0 2.27442675 0 0 Z " fill="#5C3DD8" transform="translate(282,213)"/>
<path d="M0 0 C0.99 0 1.98 0 3 0 C3.33 0.99 3.66 1.98 4 3 C4.66 3.33 5.32 3.66 6 4 C4.6744419 7.62276315 3.05653045 10.63505348 0.875 13.8125 C0.33617187 14.60269531 -0.20265625 15.39289063 -0.7578125 16.20703125 C-1.16773438 16.79871094 -1.57765625 17.39039063 -2 18 C-2.66 17.67 -3.32 17.34 -4 17 C-4 15 -4 15 -2 13 C-2.33 12.01 -2.66 11.02 -3 10 C-2.34 9.01 -1.68 8.02 -1 7 C-0.34 7 0.32 7 1 7 C0.67 4.69 0.34 2.38 0 0 Z " fill="#5431EF" transform="translate(709,468)"/>
<path d="M0 0 C1.28589593 3.85768778 0.43749924 5.04706974 -1.08984375 8.76171875 C-1.54423828 9.87998047 -1.99863281 10.99824219 -2.46679688 12.15039062 C-2.95212891 13.31763672 -3.43746094 14.48488281 -3.9375 15.6875 C-4.65969727 17.45577148 -4.65969727 17.45577148 -5.39648438 19.25976562 C-6.58925776 22.17674608 -7.79072299 25.0898314 -9 28 C-10.01492872 24.4850392 -9.83453136 22.70992531 -8.5625 19.25 C-8.27503906 18.45078125 -7.98757813 17.6515625 -7.69140625 16.828125 C-7.46324219 16.22484375 -7.23507812 15.6215625 -7 15 C-7.66 14.67 -8.32 14.34 -9 14 C-6.25 9.125 -6.25 9.125 -4 8 C-3.34786708 5.97536745 -3.34786708 5.97536745 -3 4 C-2.34 4 -1.68 4 -1 4 C-0.67 2.68 -0.34 1.36 0 0 Z " fill="#5B3CDC" transform="translate(482,341)"/>
<path d="M0 0 C0.33 0 0.66 0 1 0 C1.02686553 1.97909398 1.04633375 3.95828971 1.0625 5.9375 C1.07410156 7.03964844 1.08570313 8.14179688 1.09765625 9.27734375 C1 12 1 12 0 13 C-0.1848903 14.55836106 -0.32286649 16.12240167 -0.4375 17.6875 C-1.03824699 24.18480973 -2.97582498 29.22657496 -6 35 C-6.99396464 31.89587235 -6.97568019 29.99325831 -6.07421875 26.875 C-5.74587036 25.69901245 -5.74587036 25.69901245 -5.41088867 24.49926758 C-5.17217041 23.67450928 -4.93345215 22.84975098 -4.6875 22 C-2.66351358 14.71100316 -1.00433955 7.51006142 0 0 Z " fill="#0D0535" transform="translate(738,405)"/>
<path d="M0 0 C0.99 0.33 1.98 0.66 3 1 C3 3.31 3 5.62 3 8 C3.66 8 4.32 8 5 8 C8.02952364 12.54428546 10.25108796 17.539338 9.6875 23.0625 C9.460625 23.701875 9.23375 24.34125 9 25 C6.37695222 21.06542833 4.99225181 16.9244328 3.375 12.5 C2.88773437 11.19869141 2.88773437 11.19869141 2.390625 9.87109375 C1.93042969 8.62005859 1.93042969 8.62005859 1.4609375 7.34375 C1.04013916 6.20196289 1.04013916 6.20196289 0.61083984 5.03710938 C0 3 0 3 0 0 Z " fill="#0B041C" transform="translate(390,290)"/>
<path d="M0 0 C-0.61875 0.04125 -1.2375 0.0825 -1.875 0.125 C-2.57625 0.41375 -3.2775 0.7025 -4 1 C-4.70381157 2.98723268 -5.3711811 4.98777953 -6 7 C-9.47512718 8.15837573 -11.13670286 7.77265943 -14.6875 7.0625 C-15.68136719 6.86785156 -16.67523437 6.67320312 -17.69921875 6.47265625 C-18.83810547 6.23869141 -18.83810547 6.23869141 -20 6 C-16.63660335 3.75773557 -13.23659448 2.57407253 -9.4375 1.3125 C-8.40979492 0.95575195 -8.40979492 0.95575195 -7.36132812 0.59179688 C-2.24241255 -1.12120628 -2.24241255 -1.12120628 0 0 Z " fill="#080425" transform="translate(634,544)"/>
<path d="M0 0 C0.99 0.33 1.98 0.66 3 1 C-2.15344052 5.36270097 -7.51773444 9.0427586 -13.375 12.375 C-13.98166504 12.72046875 -14.58833008 13.0659375 -15.21337891 13.421875 C-17.78720777 14.86016998 -20.19535737 16.06511912 -23 17 C-23 16.34 -23 15.68 -23 15 C-22.01 14.34 -21.02 13.68 -20 13 C-20.33 12.34 -20.66 11.68 -21 11 C-17.71023192 9.90341064 -16.28696233 10.20046862 -13 11 C-13 10.34 -13 9.68 -13 9 C-11.36209288 7.95355934 -9.68991979 6.9601817 -8 6 C-6.948125 5.1646875 -6.948125 5.1646875 -5.875 4.3125 C-4 3 -4 3 -1 3 C-0.67 2.01 -0.34 1.02 0 0 Z " fill="#5C3FD7" transform="translate(669,520)"/>
<path d="M0 0 C0.66 0 1.32 0 2 0 C1.3661521 5.517155 -0.50564309 10.26747809 -2.5625 15.375 C-2.89185547 16.20644531 -3.22121094 17.03789062 -3.56054688 17.89453125 C-4.36844762 19.93184618 -5.1817011 21.96684442 -6 24 C-6.33 24 -6.66 24 -7 24 C-7.33 21.69 -7.66 19.38 -8 17 C-7.34 17 -6.68 17 -6 17 C-5.67 16.01 -5.34 15.02 -5 14 C-4.67 13.05125 -4.34 12.1025 -4 11.125 C-3.13256264 8.41425827 -2.49383966 5.79842471 -2 3 C-1.34 3 -0.68 3 0 3 C0 2.01 0 1.02 0 0 Z " fill="#080132" transform="translate(479,408)"/>
<path d="M0 0 C6.91249418 5.76041182 13.58087561 11.77450081 19 19 C18.67 19.66 18.34 20.32 18 21 C17.01 20.67 16.02 20.34 15 20 C14.67 18.35 14.34 16.7 14 15 C13.34 15 12.68 15 12 15 C12 14.34 12 13.68 12 13 C11.34 13 10.68 13 10 13 C10 12.34 10 11.68 10 11 C9.34 11 8.68 11 8 11 C8 10.34 8 9.68 8 9 C7.34 9 6.68 9 6 9 C6 8.34 6 7.68 6 7 C4.35 6.67 2.7 6.34 1 6 C0.67 4.02 0.34 2.04 0 0 Z " fill="#583BC7" transform="translate(683,256)"/>
<path d="M0 0 C1.6875 1.4375 1.6875 1.4375 3 4 C2.42306101 7.15765536 1.20459352 10.03447458 0 13 C-0.56522352 14.51982323 -1.12793274 16.04058517 -1.6875 17.5625 C-2.120625 18.696875 -2.55375 19.83125 -3 21 C-3.33 21 -3.66 21 -4 21 C-4 18.36 -4 15.72 -4 13 C-3.34 13 -2.68 13 -2 13 C-2.20625 12.29875 -2.4125 11.5975 -2.625 10.875 C-3.16379168 6.74426378 -1.83250846 3.66501691 0 0 Z " fill="#0A0518" transform="translate(435,247)"/>
<path d="M0 0 C1 2 1 2 2 5 C3.32 3.68 4.64 2.36 6 1 C5.49396008 3.16874252 5.00016187 4.99967627 4 7 C3.34 7 2.68 7 2 7 C1.67 7.99 1.34 8.98 1 10 C0.01 8.68 -0.98 7.36 -2 6 C-2.86625 7.1446875 -2.86625 7.1446875 -3.75 8.3125 C-5.71703093 10.66200917 -7.48476744 12.29323505 -10 14 C-10.66 13.67 -11.32 13.34 -12 13 C-11.46890625 12.48050781 -10.9378125 11.96101563 -10.390625 11.42578125 C-6.68949647 7.77192991 -3.12841559 4.17122079 0 0 Z " fill="#5937E1" transform="translate(648,446)"/>
<path d="M0 0 C1.12377697 3.30435084 0.89554742 5.0506862 -0.4375 8.25 C-0.72496094 8.95640625 -1.01242187 9.6628125 -1.30859375 10.390625 C-1.53675781 10.92171875 -1.76492188 11.4528125 -2 12 C-0.68 11.34 0.64 10.68 2 10 C0.6062718 14.43458973 -1.60582235 16.87378374 -5 20 C-5 19.01 -5 18.02 -5 17 C-5.66 16.67 -6.32 16.34 -7 16 C-5.56835889 12.34061828 -4.01065704 8.76011932 -2.375 5.1875 C-1.92898438 4.21167969 -1.48296875 3.23585938 -1.0234375 2.23046875 C-0.51683594 1.12638672 -0.51683594 1.12638672 0 0 Z " fill="#0B0526" transform="translate(622,406)"/>
<path d="M0 0 C0.556875 0.7425 1.11375 1.485 1.6875 2.25 C3.94096218 4.92979286 6.23470981 6.8728537 9 9 C10.0173873 9.98230498 11.02596117 10.97469597 12 12 C11.34 12.66 10.68 13.32 10 14 C10 13.34 10 12.68 10 12 C9.34 12 8.68 12 8 12 C7.67 12.66 7.34 13.32 7 14 C5 12 5 12 4 9 C3.01 9.33 2.02 9.66 1 10 C0.67 6.7 0.34 3.4 0 0 Z " fill="#080808" transform="translate(852,718)"/>
<path d="M0 0 C0.99 0 1.98 0 3 0 C3.85039667 2.38111068 4.07366994 3.71350578 3.4375 6.1875 C2 8 2 8 -1.125 8.75 C-2.548125 8.87375 -2.548125 8.87375 -4 9 C-5.2077558 5.37673261 -4.54311128 4.35853631 -3 1 C-2.01 1.33 -1.02 1.66 0 2 C0 1.34 0 0.68 0 0 Z " fill="#121212" transform="translate(510,703)"/>
<path d="M0 0 C3.0916909 2.52956528 3.90931332 5.22454612 5 9 C5.99 9 6.98 9 8 9 C7.773125 10.03125 7.54625 11.0625 7.3125 12.125 C6.95425981 16.56717834 7.91834894 18.16976206 10 22 C10.1875 24.875 10.1875 24.875 10 27 C7.6688774 24.6688774 7.12629186 22.94741404 6.0546875 19.84375 C5.70019531 18.82152344 5.34570312 17.79929687 4.98046875 16.74609375 C4.61566406 15.67488281 4.25085938 14.60367187 3.875 13.5 C3.50246094 12.42878906 3.12992187 11.35757812 2.74609375 10.25390625 C0 2.27715774 0 2.27715774 0 0 Z " fill="#0A0230" transform="translate(380,263)"/>
<path d="M0 0 C2.67710191 1.33855096 2.95129094 2.72058088 4.125 5.4375 C4.47820312 6.24058594 4.83140625 7.04367187 5.1953125 7.87109375 C6 10 6 10 6 12 C6.66 12 7.32 12 8 12 C8.33 11.34 8.66 10.68 9 10 C9 11.65 9 13.3 9 15 C8.34 15 7.68 15 7 15 C7.350625 15.7425 7.70125 16.485 8.0625 17.25 C9.0720098 20.21122875 8.87980884 21.12062561 8 24 C6.65853506 20.56561785 5.32824095 17.12701583 4 13.6875 C3.6184375 12.71103516 3.236875 11.73457031 2.84375 10.72851562 C2.4828125 9.79072266 2.121875 8.85292969 1.75 7.88671875 C1.41484375 7.02264404 1.0796875 6.15856934 0.734375 5.26831055 C0 3 0 3 0 0 Z " fill="#5C3DDB" transform="translate(357,412)"/>
<path d="M0 0 C0.33 1.32 0.66 2.64 1 4 C0.01 4.495 0.01 4.495 -1 5 C-1.65772428 8.02934491 -1.65772428 8.02934491 -2 11 C-3.32 10.67 -4.64 10.34 -6 10 C-6.99 11.485 -6.99 11.485 -8 13 C-10.625 13.6875 -10.625 13.6875 -13 14 C-12.67 13.34 -12.34 12.68 -12 12 C-11.34 12 -10.68 12 -10 12 C-10 11.34 -10 10.68 -10 10 C-8.54588192 8.77721889 -7.08788691 7.55842418 -5.6015625 6.375 C-3.40798642 4.49173468 -1.71889197 2.31389304 0 0 Z " fill="#0B0625" transform="translate(695,499)"/>
<path d="M0 0 C1.32 0.66 2.64 1.32 4 2 C3.43457996 3.32031595 2.84693528 4.6311301 2.25 5.9375 C1.76273438 7.03384766 1.76273438 7.03384766 1.265625 8.15234375 C0 10 0 10 -2.140625 10.75390625 C-3.06101562 10.87572266 -3.06101562 10.87572266 -4 11 C-4.49230769 4.6 -4.49230769 4.6 -2 1.5625 C-1.34 1.046875 -0.68 0.53125 0 0 Z " fill="#0C0C0C" transform="translate(727,658)"/>
<path d="M0 0 C-7.50470147 5.00313432 -17.10820742 6.59856467 -26 7 C-25.34 6.67 -24.68 6.34 -24 6 C-24 5.34 -24 4.68 -24 4 C-23.3709375 3.96261719 -22.741875 3.92523438 -22.09375 3.88671875 C-16.88918296 3.48697038 -12.63362848 2.6448729 -7.828125 0.6328125 C-5.19412904 -0.27895533 -2.75268304 -0.20645123 0 0 Z " fill="#090231" transform="translate(608,477)"/>
<path d="M0 0 C5.63689034 1.32632714 7.93185683 5.46631765 11 10 C10.01 10.495 10.01 10.495 9 11 C9 10.34 9 9.68 9 9 C7.68 9.33 6.36 9.66 5 10 C4.67 8.68 4.34 7.36 4 6 C3.360625 5.896875 2.72125 5.79375 2.0625 5.6875 C1.381875 5.460625 0.70125 5.23375 0 5 C-0.33 4.01 -0.66 3.02 -1 2 C-0.67 1.34 -0.34 0.68 0 0 Z " fill="#0C0C0C" transform="translate(613,633)"/>
<path d="M0 0 C1.1817019 3.5451057 0.7911988 4.14017506 -0.65234375 7.44921875 C-1.01650391 8.29677734 -1.38066406 9.14433594 -1.75585938 10.01757812 C-2.34077148 11.33918945 -2.34077148 11.33918945 -2.9375 12.6875 C-3.32357422 13.58017578 -3.70964844 14.47285156 -4.10742188 15.39257812 C-5.06311123 17.59892268 -6.02755469 19.80100147 -7 22 C-7.33 22 -7.66 22 -8 22 C-7.48594831 17.03083364 -6.76615118 12.70973649 -5 8 C-4.34 8 -3.68 8 -3 8 C-2.814375 6.8553125 -2.814375 6.8553125 -2.625 5.6875 C-2 3 -2 3 0 0 Z " fill="#090233" transform="translate(436,520)"/>
<path d="M0 0 C0.66 0 1.32 0 2 0 C-0.07042054 7.60837466 -2.85830477 14.7728592 -6 22 C-6.33 22 -6.66 22 -7 22 C-6.49427776 18.03850909 -5.88634791 14.10844173 -5.125 10.1875 C-4.98320312 9.43855469 -4.84140625 8.68960937 -4.6953125 7.91796875 C-4 6 -4 6 -1 4 C-0.27617533 1.94074861 -0.27617533 1.94074861 0 0 Z " fill="#0A032E" transform="translate(503,348)"/>
<path d="M0 0 C0.99 0 1.98 0 3 0 C2.26951699 4.68803656 0.63363115 8.90885555 -1.0625 13.3125 C-1.34416016 14.05306641 -1.62582031 14.79363281 -1.91601562 15.55664062 C-2.60718575 17.37242655 -3.30311689 19.18639899 -4 21 C-4.33 21 -4.66 21 -5 21 C-5 19.02 -5 17.04 -5 15 C-4.34 15 -3.68 15 -3 15 C-3 13.02 -3 11.04 -3 9 C-2.34 9 -1.68 9 -1 9 C-1.020625 7.88625 -1.04125 6.7725 -1.0625 5.625 C-1 2 -1 2 0 0 Z " fill="#07022C" transform="translate(428,268)"/>
<path d="M0 0 C1.32 0.33 2.64 0.66 4 1 C-1.20391664 4.75248411 -5.68688724 7.65678452 -12 9 C-11.67 8.01 -11.34 7.02 -11 6 C-9.35 6 -7.7 6 -6 6 C-6 5.01 -6 4.02 -6 3 C-6.66 3 -7.32 3 -8 3 C-8 2.34 -8 1.68 -8 1 C-5.36 1.33 -2.72 1.66 0 2 C0 1.34 0 0.68 0 0 Z " fill="#5738DA" transform="translate(597,435)"/>
<path d="M0 0 C0.99 0 1.98 0 3 0 C3.12117187 0.68964844 3.24234375 1.37929688 3.3671875 2.08984375 C4.18127235 6.65498111 5.02239162 11.18255717 6.125 15.6875 C7.09239487 19.87450592 7.15592021 23.71219423 7 28 C6.67 28 6.34 28 6 28 C5.81824219 27.02160156 5.63648438 26.04320312 5.44921875 25.03515625 C4.19993581 18.47034618 2.95863835 12.09245972 0.55078125 5.83203125 C0 4 0 4 0 0 Z " fill="#5A3ED7" transform="translate(662,345)"/>
<path d="M0 0 C1.42982889 4.83467321 -0.12017989 7.84201602 -1.9921875 12.43359375 C-2.52199219 13.73490234 -2.52199219 13.73490234 -3.0625 15.0625 C-3.57490234 16.28646484 -3.57490234 16.28646484 -4.09765625 17.53515625 C-5.00498504 20.01361713 -5.55095389 22.40293953 -6 25 C-6.99 25.33 -7.98 25.66 -9 26 C-8.37658609 22.4617797 -7.44678155 19.26706972 -6.15234375 15.91796875 C-5.79462891 14.98662109 -5.43691406 14.05527344 -5.06835938 13.09570312 C-4.69517578 12.13599609 -4.32199219 11.17628906 -3.9375 10.1875 C-3.56044922 9.20845703 -3.18339844 8.22941406 -2.79492188 7.22070312 C-1.86684405 4.8123999 -0.93509884 2.40558386 0 0 Z " fill="#0B033B" transform="translate(499,300)"/>
<path d="M0 0 C1.22156872 3.66470616 0.62833432 4.63237688 -0.8125 8.125 C-1.16957031 9.01445313 -1.52664063 9.90390625 -1.89453125 10.8203125 C-3 13 -3 13 -5 14 C-6.0625 12.1875 -6.0625 12.1875 -7 10 C-6.67 9.01 -6.34 8.02 -6 7 C-6 7.66 -6 8.32 -6 9 C-5.34 9 -4.68 9 -4 9 C-3.67 7.35 -3.34 5.7 -3 4 C-3.99 3.67 -4.98 3.34 -6 3 C-5.195625 2.690625 -4.39125 2.38125 -3.5625 2.0625 C-1.10919595 1.23664655 -1.10919595 1.23664655 0 0 Z " fill="#5A3ED8" transform="translate(410,525)"/>
<path d="M0 0 C0.66 0 1.32 0 2 0 C1.42770367 5.19228855 -1.0982161 9.3103703 -3.5625 13.8125 C-3.98724609 14.60076172 -4.41199219 15.38902344 -4.84960938 16.20117188 C-5.89396554 18.1373378 -6.9442077 20.07005367 -8 22 C-8.33 22 -8.66 22 -9 22 C-9.1875 19.6875 -9.1875 19.6875 -9 17 C-8.02246356 15.97803008 -7.0194119 14.98020375 -6 14 C-4.79950593 10.89992799 -4.79950593 10.89992799 -4 8 C-3.34 8 -2.68 8 -2 8 C-1.855625 7.236875 -1.71125 6.47375 -1.5625 5.6875 C-1 3 -1 3 0 0 Z " fill="#5C3ED7" transform="translate(724,450)"/>
<path d="M0 0 C0.66 0.33 1.32 0.66 2 1 C-1.29531923 6.73000526 -4.58609556 12.06681268 -9 17 C-10 14 -10 14 -9 11 C-8.01 11 -7.02 11 -6 11 C-5.71125 10.2575 -5.4225 9.515 -5.125 8.75 C-4.17697356 6.43260203 -3.15154089 4.22082885 -2 2 C-1.34 2 -0.68 2 0 2 C0 1.34 0 0.68 0 0 Z " fill="#0A0230" transform="translate(655,432)"/>
<path d="M0 0 C0.66 0 1.32 0 2 0 C-0.05764921 6.45353615 -2.42383482 12.7361263 -5 19 C-5.33 19 -5.66 19 -6 19 C-6 16.69 -6 14.38 -6 12 C-5.34 12 -4.68 12 -4 12 C-3.67 8.7 -3.34 5.4 -3 2 C-2.01 2 -1.02 2 0 2 C0 1.34 0 0.68 0 0 Z " fill="#0B042E" transform="translate(511,329)"/>
<path d="M0 0 C0.33 0 0.66 0 1 0 C1.05422947 1.4370809 1.09289723 2.87475462 1.125 4.3125 C1.14820313 5.11300781 1.17140625 5.91351562 1.1953125 6.73828125 C0.90361568 10.11613046 -1.14432532 12.21648798 -3 15 C-3.63292383 17.11280345 -3.63292383 17.11280345 -4 19 C-4.99 18.67 -5.98 18.34 -7 18 C-4.69 12.06 -2.38 6.12 0 0 Z " fill="#0A042E" transform="translate(413,520)"/>
<path d="M0 0 C2.22023926 2.22023926 2.99988963 3.98529101 4.1875 6.875 C4.55230469 7.73867188 4.91710937 8.60234375 5.29296875 9.4921875 C6.04664008 12.16543056 5.9388856 13.42852989 5 16 C3.68 15.67 2.36 15.34 1 15 C1.01160156 14.36191406 1.02320313 13.72382812 1.03515625 13.06640625 C1.04417969 12.24011719 1.05320312 11.41382813 1.0625 10.5625 C1.07990234 9.32693359 1.07990234 9.32693359 1.09765625 8.06640625 C1.23267348 6.00836062 1.23267348 6.00836062 0 5 C-0.04063832 3.33382885 -0.042721 1.66611905 0 0 Z " fill="#09031F" transform="translate(394,512)"/>
<path d="M0 0 C2.29013653 3.4352048 2.17842973 4.985331 2 9 C2.66 8.67 3.32 8.34 4 8 C4.33 11.96 4.66 15.92 5 20 C2.43461521 17.43461521 1.62642121 14.93954104 0.3125 11.5625 C-0.14511719 10.40878906 -0.60273438 9.25507813 -1.07421875 8.06640625 C-2.14873925 4.50734045 -1.62090247 3.24180493 0 0 Z " fill="#5C3ADD" transform="translate(386,481)"/>
<path d="M0 0 C6.71700347 -0.31985731 11.75726932 0.5206176 18 3 C18 3.66 18 4.32 18 5 C18.66 5.33 19.32 5.66 20 6 C15.41105799 5.32930848 11.07452793 4.23877704 6.625 2.9375 C5.37976563 2.57527344 4.13453125 2.21304688 2.8515625 1.83984375 C1.91054688 1.56269531 0.96953125 1.28554687 0 1 C0 0.67 0 0.34 0 0 Z " fill="#0B0536" transform="translate(612,218)"/>
<path d="M0 0 C2 3 2 3 1.625 5.6875 C1.41875 6.450625 1.2125 7.21375 1 8 C0.34 8 -0.32 8 -1 8 C-1 8.66 -1 9.32 -1 10 C-1.66 10 -2.32 10 -3 10 C-3 10.66 -3 11.32 -3 12 C-4.62626404 13.38232443 -6.2925002 14.71937515 -8 16 C-6.57250019 12.20950293 -4.83763458 8.72877544 -2.875 5.1875 C-2.33617187 4.21167969 -1.79734375 3.23585938 -1.2421875 2.23046875 C-0.83226562 1.49441406 -0.42234375 0.75835937 0 0 Z " fill="#5837D8" transform="translate(658,429)"/>
<path d="M0 0 C2.29355087 2.29355087 2.86201284 3.96758443 3.9453125 7.0078125 C4.29980469 7.99394531 4.65429688 8.98007813 5.01953125 9.99609375 C5.38433594 11.02863281 5.74914062 12.06117188 6.125 13.125 C6.49753906 14.16527344 6.87007813 15.20554687 7.25390625 16.27734375 C8.1743284 18.84980566 9.08945636 21.42402838 10 24 C9.34 24.33 8.68 24.66 8 25 C5.84358326 20.90896939 4.21300881 16.92491101 2.875 12.5 C2.54242188 11.4171875 2.20984375 10.334375 1.8671875 9.21875 C1.04122725 6.15302367 0.46327882 3.13895035 0 0 Z " fill="#5A3FCE" transform="translate(373,247)"/>
<path d="M0 0 C2.49247522 3.02096567 3.87956332 5.87923005 5.1875 9.5625 C5.53167969 10.51253906 5.87585938 11.46257812 6.23046875 12.44140625 C7 15 7 15 7 18 C6.34 18 5.68 18 5 18 C3.15963319 15.23944978 2.31655886 13.25401883 1.375 10.125 C1.11460937 9.28195312 0.85421875 8.43890625 0.5859375 7.5703125 C-0.00963022 4.95775542 -0.10525251 2.66958629 0 0 Z " fill="#5B3DDB" transform="translate(384,278)"/>
<path d="M0 0 C0.66 0 1.32 0 2 0 C1.43174347 5.54050113 -0.62886517 10.03715966 -3 15 C-3.33 15 -3.66 15 -4 15 C-3.67 11.37 -3.34 7.74 -3 4 C-2.34 4 -1.68 4 -1 4 C-0.67 2.68 -0.34 1.36 0 0 Z " fill="#090328" transform="translate(485,393)"/>
<path d="M0 0 C1.27310312 0.93441535 2.543388 1.87267111 3.8125 2.8125 C4.52019531 3.33457031 5.22789062 3.85664063 5.95703125 4.39453125 C7.79961207 5.84252498 9.46364869 7.23101505 11 9 C11 9.66 11 10.32 11 11 C10.34 11 9.68 11 9 11 C8.67 10.34 8.34 9.68 8 9 C5.47266765 8.34444881 5.47266765 8.34444881 3 8 C3 7.34 3 6.68 3 6 C2.01 5.67 1.02 5.34 0 5 C0 3.35 0 1.7 0 0 Z " fill="#5938DF" transform="translate(600,336)"/>
<path d="M0 0 C2.36775721 2.36775721 2.99896496 4.29711338 4.125 7.4375 C4.47820312 8.40558594 4.83140625 9.37367188 5.1953125 10.37109375 C6 13 6 13 6 16 C5.34 16 4.68 16 4 16 C3.01 13.69 2.02 11.38 1 9 C0.34 9 -0.32 9 -1 9 C-0.67 6.03 -0.34 3.06 0 0 Z " fill="#0A022F" transform="translate(321,320)"/>
<path d="M0 0 C1.14680101 3.44040303 0.87124738 4.00270384 -0.43359375 7.23046875 C-0.75263672 8.03291016 -1.07167969 8.83535156 -1.40039062 9.66210938 C-1.74263672 10.49548828 -2.08488281 11.32886719 -2.4375 12.1875 C-2.77587891 13.03248047 -3.11425781 13.87746094 -3.46289062 14.74804688 C-4.30025552 16.83556216 -5.14620197 18.91916409 -6 21 C-6.97591583 17.61682513 -6.85856655 15.4342662 -6 12 C-5.34 12 -4.68 12 -4 12 C-4 10.02 -4 8.04 -4 6 C-3.34 6 -2.68 6 -2 6 C-1.34 4.02 -0.68 2.04 0 0 Z " fill="#08012E" transform="translate(451,213)"/>
<path d="M0 0 C3.17218843 3.62535821 4.42902597 7.51150278 6 12 C4.68 13.32 3.36 14.64 2 16 C2.04125 15.2575 2.0825 14.515 2.125 13.75 C2.1998271 11.05102797 2.1998271 11.05102797 1 9.125 C-0.43422946 6.07726241 -0.12761959 3.31810935 0 0 Z " fill="#0A0422" transform="translate(400,528)"/>
<path d="M0 0 C0.33 0 0.66 0 1 0 C1.7214682 5.48315835 -0.25634906 8.96460427 -2.80859375 13.6328125 C-3.89052734 15.78249039 -4.52929741 17.65189744 -5 20 C-5.99 19.67 -6.98 19.34 -8 19 C-7.59007812 18.04738281 -7.18015625 17.09476562 -6.7578125 16.11328125 C-6.2135091 14.84636816 -5.66924009 13.57944029 -5.125 12.3125 C-4.85558594 11.68666016 -4.58617187 11.06082031 -4.30859375 10.41601562 C-2.82553722 6.96157906 -1.37772516 3.49781679 0 0 Z " fill="#0C0434" transform="translate(730,440)"/>
<path d="M0 0 C2.62027436 2.62027436 3.48198873 5.57923297 4.6875 9 C4.92533203 9.64195312 5.16316406 10.28390625 5.40820312 10.9453125 C6.00166907 12.60910558 6.50730517 14.30363299 7 16 C6.67 16.66 6.34 17.32 6 18 C5.731875 17.38125 5.46375 16.7625 5.1875 16.125 C4.04443152 13.7004767 4.04443152 13.7004767 1 12 C0.48828125 9.1796875 0.48828125 9.1796875 0.3125 5.875 C0.24675781 4.77929688 0.18101562 3.68359375 0.11328125 2.5546875 C0.05720703 1.29011719 0.05720703 1.29011719 0 0 Z " fill="#080228" transform="translate(363,431)"/>
<path d="M0 0 C1.48357806 3.85730295 0.45653693 6.24194799 -1 10 C-1.4021875 11.04800781 -1.804375 12.09601563 -2.21875 13.17578125 C-2.85296875 14.72845703 -2.85296875 14.72845703 -3.5 16.3125 C-3.9228125 17.36050781 -4.345625 18.40851563 -4.78125 19.48828125 C-6 22 -6 22 -8 23 C-5.81659819 15.13620323 -3.00714974 7.58324716 0 0 Z " fill="#0C0436" transform="translate(459,402)"/>
<path d="M0 0 C2 2 2 2 2 5 C2.639375 5.2475 3.27875 5.495 3.9375 5.75 C6 7 6 7 6.75 8.625 C7.1155134 12.09737727 7.05818928 15.50864298 7 19 C4.02575702 13.14445914 1.37083388 7.1246542 -1 1 C-0.67 0.67 -0.34 0.34 0 0 Z " fill="#0A0429" transform="translate(618,353)"/>
<path d="M0 0 C0.99 0.33 1.98 0.66 3 1 C5.43959392 6.90638527 5.20544452 12.68828771 5 19 C3.32518285 15.912511 2.29597217 12.88620072 1.375 9.5 C1.11460937 8.5615625 0.85421875 7.623125 0.5859375 6.65625 C0 4 0 4 0 0 Z " fill="#080229" transform="translate(732,331)"/>
<path d="M0 0 C1 2 1 2 0.875 4.8125 C1.0187408 8.47789035 2.11242396 9.93268893 4 13 C4.1875 15.8125 4.1875 15.8125 4 18 C1.35719359 15.35719359 0.28056917 12.27123173 -1.125 8.875 C-1.40214844 8.21628906 -1.67929687 7.55757813 -1.96484375 6.87890625 C-2.64759391 5.25443173 -3.32437433 3.62745052 -4 2 C-2.68 1.34 -1.36 0.68 0 0 Z " fill="#0B032F" transform="translate(725,304)"/>
<path d="M0 0 C8.91 0 17.82 0 27 0 C27 0.33 27 0.66 27 1 C26.25314941 1.01458252 25.50629883 1.02916504 24.73681641 1.04418945 C21.36567748 1.11847946 17.99554995 1.21520199 14.625 1.3125 C13.449375 1.33505859 12.27375 1.35761719 11.0625 1.38085938 C9.94101562 1.41630859 8.81953125 1.45175781 7.6640625 1.48828125 C6.62717285 1.51446533 5.5902832 1.54064941 4.52197266 1.56762695 C3.68972168 1.71031006 2.8574707 1.85299316 2 2 C1.01 3.485 1.01 3.485 0 5 C-0.66 5 -1.32 5 -2 5 C-1.34 3.35 -0.68 1.7 0 0 Z " fill="#080043" transform="translate(539,449)"/>
<path d="M0 0 C4.80177769 0.61418087 8.54887801 2.61659338 12.75 4.875 C13.43449219 5.22691406 14.11898437 5.57882812 14.82421875 5.94140625 C19.8777651 8.63329529 19.8777651 8.63329529 21 12 C17.42892597 10.66959987 14.29773358 9.07110473 11.0625 7.0625 C7.44088932 4.84839123 3.83455628 2.81636876 0 1 C0 0.67 0 0.34 0 0 Z " fill="#5C41CB" transform="translate(608,292)"/>
<path d="M0 0 C0.33 1.32 0.66 2.64 1 4 C-5.625 6.125 -5.625 6.125 -9 5 C-9.33 5.66 -9.66 6.32 -10 7 C-9.9375 5.1875 -9.9375 5.1875 -9 3 C-3.10714286 0 -3.10714286 0 0 0 Z " fill="#0D0D0D" transform="translate(399,657)"/>
<path d="M0 0 C0 0.66 0 1.32 0 2 C-0.66 2 -1.32 2 -2 2 C-2.33 2.99 -2.66 3.98 -3 5 C-3.66 5.66 -4.32 6.32 -5 7 C-5 7.99 -5 8.98 -5 10 C-7.31 9.67 -9.62 9.34 -12 9 C-3.25 0 -3.25 0 0 0 Z " fill="#0C042B" transform="translate(678,517)"/>
<path d="M0 0 C1.7866789 2.68001835 2.9322137 5.03128744 4.125 8 C4.47820312 8.86625 4.83140625 9.7325 5.1953125 10.625 C6 13 6 13 6 16 C5.01 16 4.02 16 3 16 C2.86722656 15.36191406 2.73445313 14.72382813 2.59765625 14.06640625 C2.42105469 13.24011719 2.24445313 12.41382813 2.0625 11.5625 C1.88847656 10.73878906 1.71445312 9.91507812 1.53515625 9.06640625 C1.19247006 7.02338796 1.19247006 7.02338796 0 6 C-0.04080783 4.00041636 -0.04254356 1.99954746 0 0 Z " fill="#0D0431" transform="translate(385,488)"/>
<path d="M0 0 C0.33 0 0.66 0 1 0 C1 1.65 1 3.3 1 5 C1.66 5 2.32 5 3 5 C3 4.34 3 3.68 3 3 C3.66 3 4.32 3 5 3 C5 4.32 5 5.64 5 7 C2.69 7.33 0.38 7.66 -2 8 C-2.33 9.65 -2.66 11.3 -3 13 C-4.23593891 9.29218328 -3.5678132 8.32489747 -2.0625 4.8125 C-1.68222656 3.91144531 -1.30195313 3.01039063 -0.91015625 2.08203125 C-0.60980469 1.39496094 -0.30945313 0.70789063 0 0 Z " fill="#070425" transform="translate(435,464)"/>
<path d="M0 0 C5.10477706 4.35407455 8.36483779 9.84798598 11 16 C10.67 16.66 10.34 17.32 10 18 C9.16094435 16.87926138 8.32892169 15.75325453 7.5 14.625 C6.80390625 13.68527344 6.80390625 13.68527344 6.09375 12.7265625 C5 11 5 11 5 9 C4.34 8.67 3.68 8.34 3 8 C3.33 7.34 3.66 6.68 4 6 C3.34 6 2.68 6 2 6 C1.34 4.02 0.68 2.04 0 0 Z " fill="#5F40DE" transform="translate(708,285)"/>
<path d="M0 0 C2.62187494 1.04874998 3.79371361 1.64931313 5.25 4.125 C5.4975 4.74375 5.745 5.3625 6 6 C6.99 6 7.98 6 9 6 C9.33 7.98 9.66 9.96 10 12 C6.0747975 8.29909479 3.05419844 4.45040344 0 0 Z M9 2 C10.485 2.99 10.485 2.99 12 4 C11.67 4.66 11.34 5.32 11 6 C10.34 6 9.68 6 9 6 C9 4.68 9 3.36 9 2 Z " fill="#080229" transform="translate(698,271)"/>
<path d="M0 0 C3.94139078 1.66751148 6.7892812 4.22710649 10 7 C8.3125 8.125 8.3125 8.125 6 9 C3.25 8.125 3.25 8.125 1 7 C1.66 6.67 2.32 6.34 3 6 C3 5.34 3 4.68 3 4 C2.34 4 1.68 4 1 4 C0.67 2.68 0.34 1.36 0 0 Z " fill="#0B0B0B" transform="translate(460,679)"/>
<path d="M0 0 C0.33 0 0.66 0 1 0 C1 3.63 1 7.26 1 11 C0.01 11.495 0.01 11.495 -1 12 C-1.66 11.67 -2.32 11.34 -3 11 C-3 11.99 -3 12.98 -3 14 C-3.66 14 -4.32 14 -5 14 C-3.45730076 9.27934033 -1.92205381 4.58335908 0 0 Z " fill="#5637DA" transform="translate(429,540)"/>
<path d="M0 0 C1.32 0.33 2.64 0.66 4 1 C2.33333333 6 0.66666667 11 -1 16 C-1.66 14.68 -2.32 13.36 -3 12 C-2.34 12 -1.68 12 -1 12 C-0.835 10.7625 -0.67 9.525 -0.5 8.25 C-0.4071875 7.55390625 -0.314375 6.8578125 -0.21875 6.140625 C0.06777357 3.69541605 0.06777357 3.69541605 0 0 Z " fill="#090229" transform="translate(468,431)"/>
<path d="M0 0 C2.21524001 2.95365334 3.49753719 4.72826042 4.75 8 C5.01296875 8.66 5.2759375 9.32 5.546875 10 C6.07564333 12.33387402 5.7428952 13.75123614 5 16 C3.74335022 13.09399739 3 11.20395416 3 8 C1.02 8.99 1.02 8.99 -1 10 C-0.67 6.7 -0.34 3.4 0 0 Z " fill="#090231" transform="translate(659,342)"/>
<path d="M0 0 C2.25 0.0625 2.25 0.0625 5 1 C6.22207214 2.70064584 7.11485846 4.41600532 8.0078125 6.30859375 C9.03211955 8.3370378 9.03211955 8.3370378 12 10 C12.6875 12.625 12.6875 12.625 13 15 C8.42265886 10.56570077 4.07873675 5.89853248 0 1 C0 0.67 0 0.34 0 0 Z " fill="#5D3ED2" transform="translate(640,314)"/>
<path d="M0 0 C0.66 0.33 1.32 0.66 2 1 C2 1.66 2 2.32 2 3 C2.33 3.66 2.66 4.32 3 5 C-1.62 5.33 -6.24 5.66 -11 6 C-8.66460191 4.44306794 -6.42031244 3.09799354 -3.9375 1.8125 C-2.89916016 1.26529297 -2.89916016 1.26529297 -1.83984375 0.70703125 C-1.23269531 0.47371094 -0.62554688 0.24039063 0 0 Z " fill="#0C062C" transform="translate(645,537)"/>
<path d="M0 0 C1.39214652 4.17643955 -0.29335734 6.83437793 -1.9375 10.6875 C-2.22818359 11.38939453 -2.51886719 12.09128906 -2.81835938 12.81445312 C-3.53710313 14.54650775 -4.26745331 16.27373781 -5 18 C-6.1811027 14.45669189 -5.73184189 13.10964447 -4.75 9.5625 C-4.49734375 8.61503906 -4.2446875 7.66757812 -3.984375 6.69140625 C-2.9995673 3.99881694 -1.83595984 2.18149161 0 0 Z " fill="#08022C" transform="translate(448,489)"/>
<path d="M0 0 C2.37616467 2.37616467 3.04068181 4.35349521 4.1875 7.5 C4.55230469 8.4796875 4.91710937 9.459375 5.29296875 10.46875 C6 13 6 13 5 15 C4.34 14.67 3.68 14.34 3 14 C3 13.01 3 12.02 3 11 C2.34 11 1.68 11 1 11 C0.67 7.37 0.34 3.74 0 0 Z " fill="#0C0531" transform="translate(379,473)"/>
<path d="M0 0 C2.02350324 3.03525486 2.32124018 4.19426202 2.625 7.6875 C2.69976562 8.49574219 2.77453125 9.30398438 2.8515625 10.13671875 C2.92503906 11.05904297 2.92503906 11.05904297 3 12 C0.66785852 13.20628008 -1.49642139 14.1654738 -4 15 C-3.1875 12.0625 -3.1875 12.0625 -2 9 C-1.01 8.67 -0.02 8.34 1 8 C0.67 5.36 0.34 2.72 0 0 Z " fill="#080417" transform="translate(344,380)"/>
<path d="M0 0 C0.33 0.99 0.66 1.98 1 3 C0.67 3.66 0.34 4.32 0 5 C1.65 3.68 3.3 2.36 5 1 C4.835 1.598125 4.67 2.19625 4.5 2.8125 C3.8885876 5.11344336 3.8885876 5.11344336 4 8 C1 9 1 9 -1 9 C-1.99 9.495 -1.99 9.495 -3 10 C-2.01 6.7 -1.02 3.4 0 0 Z " fill="#0A0421" transform="translate(489,326)"/>
<path d="M0 0 C0.33 0 0.66 0 1 0 C1 2.97 1 5.94 1 9 C0.01 9.33 -0.98 9.66 -2 10 C-3.20882096 12.00016466 -3.20882096 12.00016466 -4 14 C-3.46148032 8.72250715 -2.22656164 4.74354436 0 0 Z " fill="#593BDB" transform="translate(460,462)"/>
<path d="M0 0 C1.91385532 2.87078299 2.96432952 5.33411656 4.125 8.5625 C4.47820312 9.53316406 4.83140625 10.50382812 5.1953125 11.50390625 C6 14 6 14 6 16 C5.34 16 4.68 16 4 16 C4 14.68 4 13.36 4 12 C3.34 12 2.68 12 2 12 C2 10.35 2 8.7 2 7 C1.01 7 0.02 7 -1 7 C-0.67 4.69 -0.34 2.38 0 0 Z " fill="#08022C" transform="translate(373,457)"/>
<path d="M0 0 C0.66 0.33 1.32 0.66 2 1 C0.35 5.62 -1.3 10.24 -3 15 C-3.33 15 -3.66 15 -4 15 C-4 12.03 -4 9.06 -4 6 C-3.01 5.67 -2.02 5.34 -1 5 C-0.67 3.35 -0.34 1.7 0 0 Z " fill="#09022E" transform="translate(416,304)"/>
<path d="M0 0 C2.31 0.66 4.62 1.32 7 2 C7 2.99 7 3.98 7 5 C8.32 4.67 9.64 4.34 11 4 C11 5.98 11 7.96 11 10 C7.19364503 6.79239749 3.45436433 3.59253891 0 0 Z " fill="#0B032B" transform="translate(681,254)"/>
<path d="M0 0 C2.97 0.495 2.97 0.495 6 1 C6 2.98 6 4.96 6 7 C3 7 3 7 1.3125 5.75 C0 4 0 4 0 0 Z " fill="#522EEA" transform="translate(416,312)"/>
<path d="M0 0 C0.33 0.99 0.66 1.98 1 3 C0.01 3.33 -0.98 3.66 -2 4 C-2.73323796 6.01508358 -2.73323796 6.01508358 -3 8 C-3.66 7.67 -4.32 7.34 -5 7 C-5.625 3.9375 -5.625 3.9375 -6 1 C-3 0 -3 0 0 0 Z " fill="#0C0C0A" transform="translate(310,668)"/>
<path d="M0 0 C0.66 0.33 1.32 0.66 2 1 C1.67 4.63 1.34 8.26 1 12 C-0.32 12 -1.64 12 -3 12 C-4 10 -4 10 -3.22265625 7.6171875 C-2.83980469 6.71226562 -2.45695313 5.80734375 -2.0625 4.875 C-1.68222656 3.96492188 -1.30195312 3.05484375 -0.91015625 2.1171875 C-0.60980469 1.41851562 -0.30945313 0.71984375 0 0 Z " fill="#5539CF" transform="translate(663,417)"/>
<path d="M0 0 C0.33 0 0.66 0 1 0 C0.50341703 5.66104589 -0.54510684 9.87674471 -3 15 C-3.33 15 -3.66 15 -4 15 C-4.15384615 7 -4.15384615 7 -3 4 C-2.34 3.67 -1.68 3.34 -1 3 C-0.67 2.01 -0.34 1.02 0 0 Z " fill="#080221" transform="translate(663,412)"/>
<path d="M0 0 C2 1 2 1 2.8515625 3.28515625 C3.10679687 4.20167969 3.36203125 5.11820312 3.625 6.0625 C3.88539063 6.98160156 4.14578125 7.90070313 4.4140625 8.84765625 C4.60742188 9.55792969 4.80078125 10.26820313 5 11 C3.02 11.99 3.02 11.99 1 13 C1.04125 11.906875 1.0825 10.81375 1.125 9.6875 C1.32074666 5.91107771 1.32074666 5.91107771 -1 3 C-0.67 2.01 -0.34 1.02 0 0 Z " fill="#090322" transform="translate(355,411)"/>
<path d="M0 0 C0.99 0.33 1.98 0.66 3 1 C1.35 5.29 -0.3 9.58 -2 14 C-2.33 14 -2.66 14 -3 14 C-3 12.02 -3 10.04 -3 8 C-2.34 8 -1.68 8 -1 8 C-1.020625 6.865625 -1.04125 5.73125 -1.0625 4.5625 C-1 1 -1 1 0 0 Z " fill="#0A022D" transform="translate(490,379)"/>
<path d="M0 0 C1.91385532 2.87078299 2.96432952 5.33411656 4.125 8.5625 C4.47820312 9.53316406 4.83140625 10.50382812 5.1953125 11.50390625 C6 14 6 14 6 16 C5.34 16 4.68 16 4 16 C4 15.01 4 14.02 4 13 C3.34 13 2.68 13 2 13 C2 11.02 2 9.04 2 7 C1.34 7 0.68 7 0 7 C0 4.69 0 2.38 0 0 Z " fill="#0A0230" transform="translate(309,287)"/>
<path d="M0 0 C0 0.99 0 1.98 0 3 C-2 4 -4 5 -6 6 C-6.66 5.34 -7.32 4.68 -8 4 C-7.34 4 -6.68 4 -6 4 C-6 2.68 -6 1.36 -6 0 C-3 -1 -3 -1 0 0 Z " fill="#0B0B0B" transform="translate(791,729)"/>
<path d="M0 0 C0.66 0 1.32 0 2 0 C2 0.99 2 1.98 2 3 C2.66 3 3.32 3 4 3 C2.72530598 5.54938804 1.50840774 5.74579613 -1 7 C-2.70921589 8.5412312 -2.70921589 8.5412312 -4 10 C-3.125 4.25 -3.125 4.25 -2 2 C-1.34 2 -0.68 2 0 2 C0 1.34 0 0.68 0 0 Z " fill="#0C0C0C" transform="translate(219,629)"/>
<path d="M0 0 C-2.96348429 1.9756562 -3.68020373 2.26376859 -7.01171875 2.4140625 C-8.14770508 2.47207031 -8.14770508 2.47207031 -9.30664062 2.53125 C-10.09232422 2.5621875 -10.87800781 2.593125 -11.6875 2.625 C-12.48478516 2.66367187 -13.28207031 2.70234375 -14.10351562 2.7421875 C-16.06863475 2.83632494 -18.0342854 2.91924632 -20 3 C-20 2.67 -20 2.34 -20 2 C-17.41842632 1.46867611 -14.83538244 0.94965621 -12.25 0.4375 C-11.52039063 0.28603516 -10.79078125 0.13457031 -10.0390625 -0.02148438 C-6.33442927 -0.74557178 -3.60677678 -1.09817231 0 0 Z " fill="#0D043E" transform="translate(613,551)"/>
<path d="M0 0 C0.99 0.33 1.98 0.66 3 1 C4.17755913 3.94389782 4.03348696 4.89953913 3 8 C2.34 8 1.68 8 1 8 C0.67 8.66 0.34 9.32 0 10 C-1.125 3.375 -1.125 3.375 0 0 Z " fill="#080217" transform="translate(435,512)"/>
<path d="M0 0 C0.66 0 1.32 0 2 0 C2 1.65 2 3.3 2 5 C2.66 5 3.32 5 4 5 C3.45276317 8.37462715 2.9451 10.08235 1 13 C0.67 8.71 0.34 4.42 0 0 Z " fill="#06021A" transform="translate(438,502)"/>
<path d="M0 0 C0.66 0.33 1.32 0.66 2 1 C0.02 3.97 -1.96 6.94 -4 10 C-4.66 9.67 -5.32 9.34 -6 9 C-6 7 -6 7 -4 5 C-4.33 4.01 -4.66 3.02 -5 2 C-4.360625 1.855625 -3.72125 1.71125 -3.0625 1.5625 C-1.02454854 1.18992819 -1.02454854 1.18992819 0 0 Z " fill="#5B3AD9" transform="translate(711,476)"/>
<path d="M0 0 C1.79378179 2.69067269 2.97313958 5.08578257 4.1875 8.0625 C4.55230469 8.94035156 4.91710937 9.81820313 5.29296875 10.72265625 C6 13 6 13 5 15 C4.34 14.34 3.68 13.68 3 13 C3 12.01 3 11.02 3 10 C2.34 10 1.68 10 1 10 C0.67 6.7 0.34 3.4 0 0 Z " fill="#0A0332" transform="translate(338,365)"/>
<path d="M0 0 C4.86896303 0.59619955 9.32790951 1.56976822 14 3 C14 3.33 14 3.66 14 4 C10.37 4.33 6.74 4.66 3 5 C3 4.01 3 3.02 3 2 C2.01 1.34 1.02 0.68 0 0 Z " fill="#0C022A" transform="translate(589,287)"/>
<path d="M0 0 C2.34914492 2.34914492 2.73140357 3.95679446 3.625 7.125 C3.88539063 8.03507813 4.14578125 8.94515625 4.4140625 9.8828125 C4.70410156 10.93082031 4.70410156 10.93082031 5 12 C4.01 11.67 3.02 11.34 2 11 C2 9.68 2 8.36 2 7 C1.01 7 0.02 7 -1 7 C-0.67 4.69 -0.34 2.38 0 0 Z " fill="#0A042A" transform="translate(291,240)"/>
<path d="M0 0 C0.66 0 1.32 0 2 0 C1.27991594 4.60853797 -0.31295939 8.67237409 -2 13 C-2.94314127 9.58389775 -3.08065117 6.54865136 -3 3 C-2.01 3 -1.02 3 0 3 C0 2.01 0 1.02 0 0 Z " fill="#09022A" transform="translate(453,474)"/>
<path d="M0 0 C0.33 0 0.66 0 1 0 C1.28780586 3.05074215 1.45787911 5.96183742 1 9 C-1.5 11.0625 -1.5 11.0625 -4 12 C-2.66666667 8 -1.33333333 4 0 0 Z " fill="#080228" transform="translate(480,349)"/>
<path d="M0 0 C0.33 0 0.66 0 1 0 C1 1.98 1 3.96 1 6 C0.01 6 -0.98 6 -2 6 C-2 7.32 -2 8.64 -2 10 C-2.99 10.33 -3.98 10.66 -5 11 C-4.01 8.03 -3.02 5.06 -2 2 C-1.34 2 -0.68 2 0 2 C0 1.34 0 0.68 0 0 Z " fill="#070222" transform="translate(539,452)"/>
<path d="M0 0 C2.18975773 3.28463659 2.99806563 6.20696275 4 10 C3.01 10 2.02 10 1 10 C1 9.01 1 8.02 1 7 C0.34 6.67 -0.32 6.34 -1 6 C-1.042721 4.33388095 -1.04063832 2.66617115 -1 1 C-0.67 0.67 -0.34 0.34 0 0 Z " fill="#0C0529" transform="translate(331,346)"/>
<path d="M0 0 C0.66 0 1.32 0 2 0 C1.36843005 5.05255964 -0.13459373 9.29593201 -2 14 C-2.33 14 -2.66 14 -3 14 C-2.88512252 12.41590006 -2.75765492 10.83271037 -2.625 9.25 C-2.55539062 8.36828125 -2.48578125 7.4865625 -2.4140625 6.578125 C-2.00149945 4.00933618 -1.28839043 2.24158985 0 0 Z " fill="#09022F" transform="translate(421,289)"/>
<path d="M0 0 C1.32 0 2.64 0 4 0 C4.66 0.66 5.32 1.32 6 2 C6.66 2.33 7.32 2.66 8 3 C8 4.65 8 6.3 8 8 C6.84772177 7.23883449 5.7033614 6.46567307 4.5625 5.6875 C3.92441406 5.25824219 3.28632812 4.82898438 2.62890625 4.38671875 C1 3 1 3 0 0 Z " fill="#090426" transform="translate(673,246)"/>
<path d="M0 0 C2.42242143 3.63363214 2.17302701 4.99843589 1.55859375 9.125 C1 11 1 11 -1.0625 13 C-2.0215625 13.495 -2.0215625 13.495 -3 14 C-2.09276387 9.31261335 -1.0452733 4.65806256 0 0 Z " fill="#5533E6" transform="translate(371,241)"/>
<path d="M0 0 C3.63 0.66 7.26 1.32 11 2 C11 2.33 11 2.66 11 3 C7.37 3.33 3.74 3.66 0 4 C0 2.68 0 1.36 0 0 Z " fill="#5938E6" transform="translate(609,218)"/>
<path d="M0 0 C1.65 0 3.3 0 5 0 C4.04882866 1.1725131 3.08882991 2.33787015 2.125 3.5 C1.59132813 4.1496875 1.05765625 4.799375 0.5078125 5.46875 C0.01023437 5.9740625 -0.48734375 6.479375 -1 7 C-1.66 7 -2.32 7 -3 7 C-2.1654738 4.49642139 -1.20628008 2.33214148 0 0 Z " fill="#0B032D" transform="translate(636,454)"/>
<path d="M0 0 C1.21065165 3.63195496 0.62784815 5.06531629 -0.4375 8.6875 C-0.72496094 9.68136719 -1.01242187 10.67523438 -1.30859375 11.69921875 C-1.53675781 12.45847656 -1.76492188 13.21773438 -2 14 C-2.99 14 -3.98 14 -5 14 C-3.45730076 9.27934033 -1.92205381 4.58335908 0 0 Z " fill="#5A3BD1" transform="translate(509,338)"/>
<path d="M0 0 C0.99 0.33 1.98 0.66 3 1 C2.67 2.65 2.34 4.3 2 6 C-1.45925163 4.7508258 -4.14693203 3.32472205 -7 1 C-5.5459375 1.0309375 -5.5459375 1.0309375 -4.0625 1.0625 C-1.12534105 1.35618499 -1.12534105 1.35618499 0 0 Z " fill="#080429" transform="translate(596,328)"/>
<path d="M0 0 C0.99 0.33 1.98 0.66 3 1 C3 3.31 3 5.62 3 8 C3.66 8 4.32 8 5 8 C5 9.98 5 11.96 5 14 C3.37723842 11.56585763 2.38255208 9.68680554 1.375 7 C0.98441406 5.9790625 0.98441406 5.9790625 0.5859375 4.9375 C0 3 0 3 0 0 Z " fill="#08012F" transform="translate(390,290)"/>
<path d="M0 0 C0.66 0 1.32 0 2 0 C1.54965877 1.62723299 1.08944646 3.25173664 0.625 4.875 C0.36976563 5.77992188 0.11453125 6.68484375 -0.1484375 7.6171875 C-1 10 -1 10 -3 12 C-3 9.36 -3 6.72 -3 4 C-2.34 4 -1.68 4 -1 4 C-0.67 2.68 -0.34 1.36 0 0 Z " fill="#0B032D" transform="translate(434,256)"/>
<path d="M0 0 C0.33 0 0.66 0 1 0 C2.125 7.625 2.125 7.625 1 11 C0.34 11 -0.32 11 -1 11 C-2.0257259 6.58937864 -2.03684712 4.07369424 0 0 Z " fill="#0A051B" transform="translate(485,336)"/>
<path d="M0 0 C2.64 1.98 5.28 3.96 8 6 C7.01 6.495 7.01 6.495 6 7 C3.64018187 6.06421005 1.30368736 5.06652192 -1 4 C-0.67 2.68 -0.34 1.36 0 0 Z " fill="#0A042C" transform="translate(628,304)"/>
<path d="M0 0 C0.86625 0.3403125 0.86625 0.3403125 1.75 0.6875 C-0.61292656 3.21338702 -1.91462511 4.57570837 -5.25 5.6875 C-5.58 4.6975 -5.91 3.7075 -6.25 2.6875 C-2.80384615 -0.38942308 -2.80384615 -0.38942308 0 0 Z " fill="#111111" transform="translate(614.25,699.3125)"/>
<path d="M0 0 C0.99 0 1.98 0 3 0 C2.67 1.32 2.34 2.64 2 4 C1.34 4 0.68 4 0 4 C0 4.66 0 5.32 0 6 C-1.65 6.66 -3.3 7.32 -5 8 C-5 7.34 -5 6.68 -5 6 C-4.01 5.34 -3.02 4.68 -2 4 C-0.80767387 1.94996045 -0.80767387 1.94996045 0 0 Z " fill="#502CEA" transform="translate(661,518)"/>
<path d="M0 0 C0.33 0 0.66 0 1 0 C1 2.31 1 4.62 1 7 C0.34 7 -0.32 7 -1 7 C-1.12375 7.639375 -1.2475 8.27875 -1.375 8.9375 C-1.58125 9.618125 -1.7875 10.29875 -2 11 C-2.99 11.495 -2.99 11.495 -4 12 C-3.52309796 10.37433394 -3.04340334 8.74948689 -2.5625 7.125 C-2.29566406 6.22007812 -2.02882813 5.31515625 -1.75390625 4.3828125 C-1 2 -1 2 0 0 Z " fill="#0A032F" transform="translate(430,477)"/>
<path d="M0 0 C1.4606285 2.64738916 2 3.89448334 2 7 C2.66 7.33 3.32 7.66 4 8 C3.67 8.66 3.34 9.32 3 10 C2.34 10 1.68 10 1 10 C1 8.35 1 6.7 1 5 C0.01 5.33 -0.98 5.66 -2 6 C-1.125 1.125 -1.125 1.125 0 0 Z " fill="#5230E1" transform="translate(436,446)"/>
<path d="M0 0 C2 1 2 1 2.6328125 2.84765625 C2.79523438 3.57855469 2.95765625 4.30945313 3.125 5.0625 C3.29257812 5.79597656 3.46015625 6.52945312 3.6328125 7.28515625 C3.75398438 7.85105469 3.87515625 8.41695313 4 9 C4.66 9 5.32 9 6 9 C6 10.32 6 11.64 6 13 C5.34 13 4.68 13 4 13 C3.32694982 11.39850114 2.66177773 9.79368971 2 8.1875 C1.62875 7.29417969 1.2575 6.40085937 0.875 5.48046875 C0 3 0 3 0 0 Z " fill="#5B3ECA" transform="translate(366,436)"/>
<path d="M0 0 C0.66 0 1.32 0 2 0 C1.125 5.75 1.125 5.75 0 8 C-0.99 8 -1.98 8 -3 8 C-2.67 6.35 -2.34 4.7 -2 3 C-1.34 3 -0.68 3 0 3 C0 2.01 0 1.02 0 0 Z " fill="#070222" transform="translate(479,408)"/>
<path d="M0 0 C1.9375 0.8125 1.9375 0.8125 4 2 C4.33 2.99 4.66 3.98 5 5 C3.02 5.66 1.04 6.32 -1 7 C-1 4.37886292 -0.68707555 2.49064888 0 0 Z " fill="#0A052A" transform="translate(636,311)"/>
<path d="M0 0 C0.99 0.33 1.98 0.66 3 1 C2.67 2.65 2.34 4.3 2 6 C0.35 6 -1.3 6 -3 6 C-2.625 3.5625 -2.625 3.5625 -2 1 C-1.34 0.67 -0.68 0.34 0 0 Z " fill="#5332E7" transform="translate(500,289)"/>
<path d="M0 0 C3.96 1.98 7.92 3.96 12 6 C12 6.33 12 6.66 12 7 C9.6875 7.1875 9.6875 7.1875 7 7 C5.4375 5.625 5.4375 5.625 4 4 C1.90010348 2.82425289 1.90010348 2.82425289 0 2 C0 1.34 0 0.68 0 0 Z " fill="#5B3DD4" transform="translate(644,230)"/>
<path d="M0 0 C0.99 0.33 1.98 0.66 3 1 C2.34 2.65 1.68 4.3 1 6 C0.01 5.01 -0.98 4.02 -2 3 C-1.34 2.01 -0.68 1.02 0 0 Z M-4 4 C-3.34 4 -2.68 4 -2 4 C-2 4.66 -2 5.32 -2 6 C-3.32 6.33 -4.64 6.66 -6 7 C-5.34 6.01 -4.68 5.02 -4 4 Z " fill="#1A1A1A" transform="translate(807,715)"/>
<path d="M0 0 C0.33 0.66 0.66 1.32 1 2 C3.01669827 3.13350534 3.01669827 3.13350534 5 4 C3.02 4.33 1.04 4.66 -1 5 C-1 4.34 -1 3.68 -1 3 C-2.32 3.33 -3.64 3.66 -5 4 C-3.36587557 2.29159719 -2.13093906 1.06546953 0 0 Z " fill="#0B0B0B" transform="translate(864,658)"/>
<path d="M0 0 C1.32 0.33 2.64 0.66 4 1 C3.43628586 4.26954202 2.50037734 5.82575883 0 8 C0 5.36 0 2.72 0 0 Z " fill="#0A0A0A" transform="translate(850,645)"/>
<path d="M0 0 C1.45606519 4.52092968 0.27032841 7.51648796 -1 12 C-1.99 12 -2.98 12 -4 12 C-3.52309796 10.37433394 -3.04340334 8.74948689 -2.5625 7.125 C-2.29566406 6.22007812 -2.02882813 5.31515625 -1.75390625 4.3828125 C-1 2 -1 2 0 0 Z " fill="#5B3FCF" transform="translate(434,528)"/>
<path d="M0 0 C0.66 0.99 1.32 1.98 2 3 C1.01 4.98 0.02 6.96 -1 9 C-1.66 9 -2.32 9 -3 9 C-2.44271087 5.65626525 -1.64826111 2.96687001 0 0 Z " fill="#5C3DE3" transform="translate(438,519)"/>
<path d="M0 0 C-2.31 1.65 -4.62 3.3 -7 5 C-7.33 3.35 -7.66 1.7 -8 0 C-4.63458162 -1.08174162 -3.70152678 -0.92538169 0 0 Z " fill="#5937DC" transform="translate(680,515)"/>
<path d="M0 0 C-0.33 0.99 -0.66 1.98 -1 3 C-1.66 3 -2.32 3 -3 3 C-3 3.66 -3 4.32 -3 5 C-4.98 5.99 -4.98 5.99 -7 7 C-6.75 4.625 -6.75 4.625 -6 2 C-3.84898936 0.54286376 -2.59713506 0 0 0 Z " fill="#5939CB" transform="translate(688,506)"/>
<path d="M0 0 C0.99 0 1.98 0 3 0 C3.1875 2.375 3.1875 2.375 3 5 C2.01 5.66 1.02 6.32 0 7 C0 6.34 0 5.68 0 5 C-0.66 4.67 -1.32 4.34 -2 4 C-1.34 2.68 -0.68 1.36 0 0 Z " fill="#080513" transform="translate(630,457)"/>
<path d="M0 0 C0.33 0.66 0.66 1.32 1 2 C1.66 2 2.32 2 3 2 C2.45276317 5.37462715 1.9451 7.08235 0 10 C0 7.69 0 5.38 0 3 C-0.66 3 -1.32 3 -2 3 C-2 2.34 -2 1.68 -2 1 C-1.34 0.67 -0.68 0.34 0 0 Z " fill="#0A0525" transform="translate(493,368)"/>
<path d="M0 0 C2 1 2 1 3.1875 3.8125 C3.96421451 6.85961076 4.10096399 8.13749363 3 11 C0.60236815 8.60236815 0.65719414 7.66726502 0.375 4.375 C0.30023438 3.55773437 0.22546875 2.74046875 0.1484375 1.8984375 C0.09945313 1.27195312 0.05046875 0.64546875 0 0 Z " fill="#5E3BE3" transform="translate(401,325)"/>
<path d="M0 0 C1.32 0 2.64 0 4 0 C7.28571429 7.42857143 7.28571429 7.42857143 8 11 C5.64270057 8.80861021 3.97942902 6.56068027 2.3125 3.8125 C1.87550781 3.09707031 1.43851563 2.38164062 0.98828125 1.64453125 C0.66214844 1.10183594 0.33601562 0.55914062 0 0 Z " fill="#0C0339" transform="translate(708,284)"/>
<path d="M0 0 C1.90389849 2.85584773 2.69462177 4.9311762 3.625 8.1875 C4.01558594 9.53908203 4.01558594 9.53908203 4.4140625 10.91796875 C4.60742188 11.60503906 4.80078125 12.29210937 5 13 C2.53686261 11.17251097 1.16571382 9.77023784 0.51171875 6.73046875 C0.27481707 4.48520654 0.09638651 2.25544422 0 0 Z " fill="#0C043C" transform="translate(286,226)"/>
<path d="M0 0 C4 4.625 4 4.625 4 8 C3.01 8.66 2.02 9.32 1 10 C0.67 6.7 0.34 3.4 0 0 Z " fill="#121212" transform="translate(852,718)"/>
<path d="M0 0 C0.66 0 1.32 0 2 0 C1.125 4.75 1.125 4.75 0 7 C-0.33 8.32 -0.66 9.64 -1 11 C-1.66 8.36 -2.32 5.72 -3 3 C-2.34 3 -1.68 3 -1 3 C-0.67 2.01 -0.34 1.02 0 0 Z " fill="#09021F" transform="translate(732,320)"/>
<path d="M0 0 C1.5625 1.75 1.5625 1.75 3 4 C2.6875 6.25 2.6875 6.25 2 8 C1.67 7.34 1.34 6.68 1 6 C0.01 6.99 -0.98 7.98 -2 9 C-1.41196203 5.97580475 -0.77321882 2.98241547 0 0 Z " fill="#08042A" transform="translate(318,312)"/>
<path d="M0 0 C2.95183101 2.95183101 3.08663988 5.95511947 4 10 C3.34 10 2.68 10 2 10 C2 9.34 2 8.68 2 8 C1.34 8 0.68 8 0 8 C0 5.36 0 2.72 0 0 Z " fill="#090329" transform="translate(303,272)"/>
<path d="M0 0 C0.99 0.33 1.98 0.66 3 1 C3 1.99 3 2.98 3 4 C3.66 4 4.32 4 5 4 C5 5.32 5 6.64 5 8 C4.01 8 3.02 8 2 8 C0.74335022 5.09399739 0 3.20395416 0 0 Z " fill="#512DE9" transform="translate(437,264)"/>
<path d="M0 0 C0.66 0 1.32 0 2 0 C2 1.65 2 3.3 2 5 C0.35 5.66 -1.3 6.32 -3 7 C-1.125 1.125 -1.125 1.125 0 0 Z " fill="#0C0C0C" transform="translate(753,665)"/>
<path d="M0 0 C1.65 0.33 3.3 0.66 5 1 C1.63576723 3.96052484 -1.69159287 4.92289822 -6 6 C-6 5.34 -6 4.68 -6 4 C-4.02 3.67 -2.04 3.34 0 3 C0 2.01 0 1.02 0 0 Z " fill="#5E3FDC" transform="translate(638,537)"/>
<path d="M0 0 C0.33 1.32 0.66 2.64 1 4 C-1.97 6.475 -1.97 6.475 -5 9 C-5.66 8.67 -6.32 8.34 -7 8 C-4.69 5.36 -2.38 2.72 0 0 Z " fill="#0E043B" transform="translate(703,490)"/>
<path d="M0 0 C0.33 1.32 0.66 2.64 1 4 C1.33 4.99 1.66 5.98 2 7 C-0.475 8.485 -0.475 8.485 -3 10 C-2.01 6.7 -1.02 3.4 0 0 Z " fill="#0B032C" transform="translate(533,464)"/>
<path d="M0 0 C1.32 0.66 2.64 1.32 4 2 C2.35 3.65 0.7 5.3 -1 7 C-2 4 -2 4 -1.0625 1.8125 C-0.5365625 0.9153125 -0.5365625 0.9153125 0 0 Z " fill="#5838E2" transform="translate(612,418)"/>
<path d="M0 0 C2.1875 1.3125 2.1875 1.3125 4 3 C4 3.66 4 4.32 4 5 C2.02 5 0.04 5 -2 5 C-2.33 3.68 -2.66 2.36 -3 1 C-2.01 0.67 -1.02 0.34 0 0 Z " fill="#5C37E6" transform="translate(611,347)"/>
<path d="M0 0 C0.99 0.33 1.98 0.66 3 1 C2.67 2.32 2.34 3.64 2 5 C1.34 5 0.68 5 0 5 C-0.33 6.32 -0.66 7.64 -1 9 C-2.0326802 6.21176345 -2.04509293 5.1322726 -1.0625 2.25 C-0.711875 1.5075 -0.36125 0.765 0 0 Z " fill="#583ADA" transform="translate(409,326)"/>
<path d="M0 0 C-2 3 -2 3 -4.125 3.6875 C-4.74375 3.790625 -5.3625 3.89375 -6 4 C-6.33 2.68 -6.66 1.36 -7 0 C-3.98968256 -0.93423645 -3.13349732 -1.04449911 0 0 Z " fill="#0F0F0F" transform="translate(284,729)"/>
<path d="M0 0 C0.61875 0.28875 1.2375 0.5775 1.875 0.875 C2.205 1.865 2.535 2.855 2.875 3.875 C-0.74826739 5.0827558 -1.76646369 4.41811128 -5.125 2.875 C-2.69803371 -0.15870787 -2.69803371 -0.15870787 0 0 Z " fill="#0B0B0A" transform="translate(478.125,689.125)"/>
<path d="M0 0 C1.85255023 3.70510046 2.5183213 5.06075811 2 9 C1.01 9.66 0.02 10.32 -1 11 C-0.67 7.37 -0.34 3.74 0 0 Z " fill="#070114" transform="translate(740,397)"/>
<path d="M0 0 C0 1.98 0 3.96 0 6 C-1.32 5.34 -2.64 4.68 -4 4 C-4 3.01 -4 2.02 -4 1 C-2 0 -2 0 0 0 Z " fill="#080211" transform="translate(629,370)"/>
<path d="M0 0 C0.66 0.33 1.32 0.66 2 1 C2.4140625 3.28515625 2.4140625 3.28515625 2.625 6.0625 C2.69976562 6.98160156 2.77453125 7.90070313 2.8515625 8.84765625 C2.92503906 9.91306641 2.92503906 9.91306641 3 11 C0.99118063 7.98677094 -0.03927918 5.47337526 -1 2 C-0.67 1.34 -0.34 0.68 0 0 Z " fill="#583AD2" transform="translate(337,357)"/>
<path d="M0 0 C2 2 2 2 2.125 5.625 C2.08375 6.73875 2.0425 7.8525 2 9 C1.01 9 0.02 9 -1 9 C-0.67 6.03 -0.34 3.06 0 0 Z " fill="#07041C" transform="translate(321,320)"/>
<path d="M0 0 C0.66 0.33 1.32 0.66 2 1 C2 2.32 2 3.64 2 5 C1.01 5.495 1.01 5.495 0 6 C-1.13350534 8.01669827 -1.13350534 8.01669827 -2 10 C-3 8 -3 8 -2.44140625 6.0546875 C-2.15136719 5.33539063 -1.86132812 4.61609375 -1.5625 3.875 C-1.27503906 3.15054687 -0.98757813 2.42609375 -0.69140625 1.6796875 C-0.46324219 1.12539063 -0.23507812 0.57109375 0 0 Z " fill="#5B3ED2" transform="translate(435,258)"/>
<path d="M0 0 C3 2 3 2 3.51171875 4.3828125 C3.56972656 5.28773438 3.62773437 6.19265625 3.6875 7.125 C3.75324219 8.03507813 3.81898438 8.94515625 3.88671875 9.8828125 C3.92410156 10.58148438 3.96148437 11.28015625 4 12 C2.09681116 9.14521674 1.5380901 7.58058692 0.875 4.3125 C0.70742188 3.50425781 0.53984375 2.69601563 0.3671875 1.86328125 C0.24601562 1.24839844 0.12484375 0.63351563 0 0 Z " fill="#090237" transform="translate(369,232)"/>
<path d="M0 0 C-0.625 2.375 -0.625 2.375 -2 5 C-5.125 6.3125 -5.125 6.3125 -8 7 C-7.67 6.34 -7.34 5.68 -7 5 C-6.34 5 -5.68 5 -5 5 C-5 4.34 -5 3.68 -5 3 C-2.46153846 0 -2.46153846 0 0 0 Z " fill="#100638" transform="translate(690,506)"/>
<path d="M0 0 C2.40072955 2.88087546 4.47291037 5.56404834 6 9 C5.01 9 4.02 9 3 9 C2.67 7.35 2.34 5.7 2 4 C1.34 4 0.68 4 0 4 C0 2.68 0 1.36 0 0 Z " fill="#11053B" transform="translate(650,326)"/>
<path d="M0 0 C0.66 0 1.32 0 2 0 C2 0.99 2 1.98 2 3 C2.99 3.33 3.98 3.66 5 4 C1.25 6 1.25 6 -1 6 C-1 5.01 -1 4.02 -1 3 C-0.34 3 0.32 3 1 3 C0.67 2.01 0.34 1.02 0 0 Z " fill="#0B0B0B" transform="translate(482,701)"/>
<path d="M0 0 C0.66 0.33 1.32 0.66 2 1 C0.68 2.32 -0.64 3.64 -2 5 C-2.99 4.67 -3.98 4.34 -5 4 C-5 3.34 -5 2.68 -5 2 C-2.625 0.9375 -2.625 0.9375 0 0 Z " fill="#EDEDED" transform="translate(249,640)"/>
<path d="M0 0 C0.33 1.32 0.66 2.64 1 4 C0.01 4.495 0.01 4.495 -1 5 C-1.33 5.66 -1.66 6.32 -2 7 C-2.66 5.02 -3.32 3.04 -4 1 C-2.68 0.67 -1.36 0.34 0 0 Z " fill="#161616" transform="translate(654,639)"/>
<path d="M0 0 C0.99 0 1.98 0 3 0 C3.33 0.99 3.66 1.98 4 3 C4.66 3.33 5.32 3.66 6 4 C5.67 4.99 5.34 5.98 5 7 C3.29115995 5.37660195 1.62553283 3.70680947 0 2 C0 1.34 0 0.68 0 0 Z " fill="#5635E4" transform="translate(709,468)"/>
<path d="M0 0 C2.50298434 2.93828597 3.46930939 5.17902761 4 9 C3.01 8.67 2.02 8.34 1 8 C0.67 5.36 0.34 2.72 0 0 Z " fill="#5A3DD4" transform="translate(723,311)"/>
<path d="M0 0 C2.52588702 2.36292656 3.88820837 3.66462511 5 7 C4.01 7.495 4.01 7.495 3 8 C0.9375 6.25 0.9375 6.25 -1 4 C-0.75 1.75 -0.75 1.75 0 0 Z " fill="#502BE9" transform="translate(713,296)"/>
</svg>
